<?xml version="1.0" encoding="UTF-8" standalone="no"?>
<svg
   xmlns:dc="http://purl.org/dc/elements/1.1/"
   xmlns:cc="http://creativecommons.org/ns#"
   xmlns:rdf="http://www.w3.org/1999/02/22-rdf-syntax-ns#"
   xmlns:svg="http://www.w3.org/2000/svg"
   xmlns="http://www.w3.org/2000/svg"
   xmlns:sodipodi="http://sodipodi.sourceforge.net/DTD/sodipodi-0.dtd"
   xmlns:inkscape="http://www.inkscape.org/namespaces/inkscape"
   inkscape:export-ydpi="96.000008"
   inkscape:export-xdpi="96.000008"
   inkscape:export-filename="/home/tristan/Scripts/8values/icon.png"
   sodipodi:docname="icon.svg"
   inkscape:version="1.0 (4035a4fb49, 2020-05-01)"
   id="svg8"
   version="1.1"
   viewBox="0 0 135.46666 135.46667"
   height="512"
   width="512">
  <defs
     id="defs2" />
  <sodipodi:namedview
     inkscape:document-rotation="0"
     inkscape:lockguides="true"
     inkscape:window-maximized="1"
     inkscape:window-y="-8"
     inkscape:window-x="-8"
     inkscape:window-height="1027"
     inkscape:window-width="1920"
     units="px"
     showgrid="false"
     inkscape:current-layer="layer1"
     inkscape:document-units="px"
     inkscape:cy="416.2124"
     inkscape:cx="-159.95171"
     inkscape:zoom="0.7"
     inkscape:pageshadow="2"
     inkscape:pageopacity="0.0"
     borderopacity="1.0"
     bordercolor="#666666"
     pagecolor="#ffffff"
     id="base" />
  <metadata
     id="metadata5">
    <rdf:RDF>
      <cc:Work
         rdf:about="">
        <dc:format>image/svg+xml</dc:format>
        <dc:type
           rdf:resource="http://purl.org/dc/dcmitype/StillImage" />
        <dc:title />
      </cc:Work>
    </rdf:RDF>
  </metadata>
  <g
     transform="translate(0,-161.53331)"
     id="layer1"
     inkscape:groupmode="layer"
     inkscape:label="Layer 1">
    <rect
       ry="33.866665"
       rx="33.866665"
       y="165.76665"
       x="4.2333326"
       height="127"
       width="127"
       id="rect4491"
       style="opacity:1;fill:#eeeeee;fill-opacity:1;fill-rule:nonzero;stroke:none;stroke-width:0.26458332;stroke-linecap:butt;stroke-linejoin:round;stroke-miterlimit:4;stroke-dasharray:none;stroke-dashoffset:0;stroke-opacity:0.90944878;paint-order:normal" />
    <path
       id="path44"
       d="m 54.26305,273.40355 c -0.06424,-0.10394 -0.366916,-0.18898 -0.672611,-0.18898 -0.305697,0 -0.55581,-0.0851 -0.55581,-0.18899 0,-0.11063 -0.64644,-0.18944 -1.559152,-0.19009 -1.89991,-10e-4 -3.747625,-0.28452 -3.945512,-0.60471 -0.08977,-0.14525 -0.809683,-0.28371 -1.86204,-0.35813 -1.184245,-0.0837 -1.821042,-0.21667 -2.055815,-0.42914 -0.187073,-0.1693 -0.556678,-0.30781 -0.821343,-0.30781 -0.881211,0 -1.662388,-0.23312 -1.662388,-0.4961 0,-0.18878 -0.282474,-0.25985 -1.032788,-0.25985 -0.839364,0 -1.070668,-0.0708 -1.235069,-0.37798 -0.164074,-0.30658 -0.395708,-0.37798 -1.22618,-0.37798 -0.978257,0 -1.986619,-0.28975 -1.986619,-0.57086 0,-0.0727 -0.489005,-0.18228 -1.08668,-0.24348 -0.805194,-0.0824 -1.153846,-0.21168 -1.345967,-0.49891 -0.207122,-0.30965 -0.461214,-0.38764 -1.262936,-0.38764 -0.837668,0 -1.023488,-0.0625 -1.123611,-0.37798 -0.101852,-0.32089 -0.285946,-0.37797 -1.219118,-0.37797 -0.94021,0 -1.113444,-0.0547 -1.197994,-0.37798 -0.0825,-0.31546 -0.257784,-0.37797 -1.059876,-0.37797 -0.756356,0 -1.011303,-0.0805 -1.197081,-0.37798 -0.187443,-0.30015 -0.440725,-0.37798 -1.230024,-0.37798 -0.867982,0 -0.993974,-0.0479 -0.993974,-0.37797 0,-0.29265 -0.125992,-0.37798 -0.558072,-0.37798 -0.64916,0 -1.548875,-0.35895 -1.766423,-0.70473 -0.08312,-0.13211 -0.352562,-0.24021 -0.598754,-0.24021 -0.643517,0 -1.045501,-0.18943 -1.045501,-0.49269 0,-0.14479 -0.160308,-0.26326 -0.35624,-0.26326 -0.498568,0 -0.886729,-0.682 -1.03569,-1.81969 -0.113862,-0.86962 -0.0877,-0.97949 0.254536,-1.06899 0.229372,-0.06 0.381442,-0.25749 0.381442,-0.49542 0,-0.26967 0.120358,-0.39567 0.377976,-0.39567 0.291933,0 0.377976,-0.12599 0.377976,-0.55346 0,-0.39848 0.238162,-0.80204 0.850447,-1.44107 0.587839,-0.61353 0.850446,-1.04857 0.850446,-1.40887 0,-0.36232 0.11525,-0.5514 0.377976,-0.6201 0.277542,-0.0726 0.377976,-0.25779 0.377976,-0.697 0,-0.32899 0.127567,-0.72573 0.283482,-0.88164 0.155916,-0.15592 0.283482,-0.52955 0.283482,-0.8303 0,-0.3442 0.133329,-0.61817 0.359821,-0.73938 0.244603,-0.13091 0.400946,-0.4916 0.488256,-1.12642 0.07334,-0.53325 0.243272,-0.97792 0.396133,-1.03657 0.160838,-0.0617 0.267695,-0.36849 0.267695,-0.76852 0,-0.46111 0.116197,-0.73835 0.377977,-0.90183 0.26909,-0.16805 0.377976,-0.44073 0.377976,-0.94655 0,-0.4395 0.133455,-0.84394 0.349905,-1.06039 0.20141,-0.20141 0.406793,-0.77875 0.483953,-1.36041 0.08537,-0.64357 0.257509,-1.09699 0.474036,-1.24865 0.247134,-0.1731 0.367292,-0.57827 0.439957,-1.48354 0.0609,-0.75868 0.218977,-1.3769 0.404482,-1.58188 0.196823,-0.21749 0.304512,-0.67975 0.304512,-1.30714 0,-0.77723 0.07532,-1.01096 0.377975,-1.17294 0.333225,-0.17834 0.377976,-0.39571 0.377976,-1.83587 0,-1.55565 0.279173,-2.88883 0.60493,-2.88883 0.08306,0 0.151024,-0.79989 0.151024,-1.77753 0,-1.38465 0.08114,-1.93812 0.367112,-2.50409 0.244915,-0.48472 0.42463,-1.40928 0.539909,-2.77756 0.117708,-1.39715 0.256728,-2.10282 0.436084,-2.21357 0.182676,-0.11279 0.294579,-0.71985 0.365466,-1.98259 0.08139,-1.44984 0.167881,-1.85679 0.425223,-2.00081 0.256481,-0.14354 0.32305,-0.45184 0.32305,-1.49617 0,-1.0815 0.0672,-1.37291 0.377976,-1.63901 0.303469,-0.25983 0.377976,-0.5575 0.377976,-1.51005 0,-0.93444 0.08028,-1.2667 0.377979,-1.5644 0.233984,-0.23398 0.377975,-0.62996 0.377975,-1.03943 0,-0.52248 0.075,-0.66146 0.356942,-0.66146 0.26226,0 0.391893,-0.18629 0.488693,-0.70227 0.07246,-0.38626 0.294537,-0.8163 0.493501,-0.95566 0.233074,-0.16325 0.361757,-0.47702 0.361757,-0.88208 0,-0.46976 0.09555,-0.65369 0.377976,-0.72755 0.286551,-0.0749 0.377975,-0.25778 0.377975,-0.75595 0,-0.49817 0.09142,-0.68102 0.377976,-0.75595 0.247626,-0.0648 0.377976,-0.25778 0.377976,-0.55972 0,-0.25348 0.17009,-0.6148 0.377979,-0.80293 0.207885,-0.18814 0.377975,-0.49897 0.377975,-0.69075 0,-0.20536 0.135946,-0.34948 0.330729,-0.35061 0.194578,-0.001 0.470255,-0.29288 0.669656,-0.7087 0.640588,-1.33587 0.792419,-1.56094 1.124042,-1.66619 0.182827,-0.058 0.332417,-0.26986 0.332417,-0.47075 0,-0.23924 0.130384,-0.36523 0.377976,-0.36523 0.251984,0 0.377976,-0.126 0.377976,-0.37798 0,-0.25198 0.125995,-0.37798 0.377978,-0.37798 0.251982,0 0.377976,-0.12599 0.377976,-0.37797 0,-0.25199 0.125992,-0.37798 0.377976,-0.37798 0.207886,0 0.377976,-0.0765 0.377976,-0.17009 0,-0.22147 1.30933,-1.5308 1.530802,-1.5308 0.09355,0 0.17009,-0.17009 0.17009,-0.37798 0,-0.25198 0.125992,-0.37797 0.377976,-0.37797 0.251984,0 0.377976,-0.126 0.377976,-0.37798 0,-0.25199 0.125995,-0.37798 0.377978,-0.37798 0.251982,0 0.377976,-0.12599 0.377976,-0.37797 0,-0.3139 0.125992,-0.37798 0.743215,-0.37798 0.563099,0 0.770723,-0.0867 0.856707,-0.35757 0.06242,-0.19667 0.28076,-0.40132 0.485207,-0.45478 0.204443,-0.0535 0.371715,-0.23273 0.371715,-0.39838 0,-0.19254 0.164841,-0.30117 0.457012,-0.30117 0.704652,0 1.054894,-0.19496 1.054894,-0.58719 0,-0.29275 0.140568,-0.35775 0.773644,-0.35775 0.614707,0 0.793954,-0.0777 0.872488,-0.37798 0.08471,-0.32395 0.257783,-0.37798 1.21073,-0.37798 0.985894,0 1.111888,-0.0428 1.111888,-0.37797 0,-0.33355 0.125992,-0.37798 1.071801,-0.37798 0.739068,0 1.180848,-0.0987 1.423072,-0.3179 0.264281,-0.23917 0.856427,-0.34447 2.391177,-0.42522 1.610508,-0.0847 2.111063,-0.17858 2.37794,-0.44581 0.31255,-0.31296 0.769535,-0.33433 6.061369,-0.28348 5.138292,0.0494 5.760659,0.0888 6.088496,0.38573 0.277265,0.25112 0.695642,0.33073 1.738138,0.33073 1.214038,0 1.384416,0.0438 1.471818,0.37797 0.08443,0.32286 0.257784,0.37798 1.188689,0.37798 0.930904,0 1.104259,0.0551 1.188688,0.37798 0.07853,0.30032 0.257781,0.37797 0.872487,0.37797 0.647653,0 0.773645,0.0616 0.773645,0.37798 0,0.30598 0.125994,0.37798 0.661458,0.37798 0.363802,0 0.661458,0.079 0.661458,0.17548 0,0.32394 0.589928,0.76946 1.018852,0.76946 0.427054,0 1.071965,0.58895 1.302364,1.18936 0.08518,0.22198 0.337362,0.32254 0.80885,0.32254 0.526145,0 0.708014,0.0877 0.783926,0.37798 0.0547,0.20919 0.257784,0.37797 0.454776,0.37797 0.229942,0 0.355936,0.1338 0.355936,0.37798 0,0.25198 0.125992,0.37798 0.377976,0.37798 0.247592,0 0.377976,0.12599 0.377976,0.36523 0,0.20089 0.17009,0.41923 0.377976,0.48521 0.207886,0.066 0.377976,0.23202 0.377976,0.36898 0,0.13695 0.212611,0.38832 0.472471,0.55858 0.301149,0.19732 0.472469,0.48574 0.472469,0.79538 0,0.32687 0.123661,0.51815 0.377976,0.58465 0.207889,0.0544 0.377976,0.22446 0.377976,0.37798 0,0.15352 0.171019,0.32385 0.380045,0.37852 0.215209,0.0563 0.426977,0.315 0.488254,0.59651 0.195379,0.89759 0.248933,0.96961 0.721016,0.96961 0.581959,0 0.668073,-0.13921 0.805879,-1.30277 0.08254,-0.69692 0.200271,-0.95725 0.4641,-1.02625 0.278387,-0.0728 0.353504,-0.27074 0.353504,-0.93154 0,-0.8044 0.395444,-1.90279 0.767919,-2.133 0.09736,-0.0602 0.177022,-0.56914 0.177022,-1.13103 0,-0.82821 0.07156,-1.05993 0.377976,-1.22392 0.288838,-0.15458 0.377976,-0.39571 0.377976,-1.02246 0,-1.19687 0.199414,-2.00135 0.496094,-2.00135 0.185906,0 0.259857,-0.26945 0.259857,-0.94679 0,-0.71292 0.09337,-1.02673 0.377979,-1.27042 0.29083,-0.24903 0.377976,-0.55751 0.377976,-1.33803 0,-0.78968 0.08485,-1.08389 0.383064,-1.32816 0.266255,-0.21809 0.416131,-0.63073 0.491508,-1.35321 0.05964,-0.57169 0.269965,-1.26986 0.467381,-1.5515 0.223706,-0.31914 0.358939,-0.83285 0.358939,-1.36351 0,-0.65803 0.08586,-0.8974 0.377976,-1.05374 0.287814,-0.15403 0.377976,-0.39571 0.377976,-1.01314 0,-0.97682 0.5363,-1.57791 1.635382,-1.83295 1.044802,-0.24246 1.388422,-0.21628 1.388422,0.10576 0,0.20474 0.20999,0.28349 0.75596,0.28349 0.62996,0 0.75595,0.063 0.75595,0.37797 0,0.30354 0.12599,0.37798 0.63972,0.37798 0.47383,0 0.72001,0.12252 0.9493,0.47247 0.17027,0.25986 0.42526,0.47247 0.56666,0.47247 0.1414,0 0.30156,0.17009 0.35593,0.37797 0.0749,0.28656 0.25778,0.37798 0.75595,0.37798 0.49817,0 0.68101,0.0914 0.75595,0.37798 0.0709,0.27119 0.25778,0.37797 0.66146,0.37797 0.40367,0 0.59054,0.10678 0.66146,0.37798 0.0668,0.25541 0.25778,0.37798 0.589,0.37798 0.30971,0 0.49016,0.10436 0.49016,0.28348 0,0.15591 0.16314,0.28348 0.36252,0.28348 0.66466,0 0.97048,0.2281 1.34496,1.00318 0.45175,0.93502 0.49898,2.02063 0.0879,2.02063 -0.15749,0 -0.28348,0.16799 -0.28348,0.37798 0,0.25198 -0.126,0.37797 -0.37798,0.37797 -0.22638,0 -0.37798,0.126 -0.37798,0.31413 0,0.4638 -0.89927,1.91599 -1.32884,2.14589 -0.20463,0.10951 -0.37205,0.31377 -0.37205,0.45391 0,0.14013 -0.17009,0.29927 -0.37798,0.35363 -0.20788,0.0544 -0.37797,0.22445 -0.37797,0.37798 0,0.15352 -0.17009,0.32361 -0.37798,0.37797 -0.21569,0.0564 -0.37797,0.25778 -0.37797,0.46903 0,0.2036 -0.17009,0.58641 -0.37798,0.8507 -0.20789,0.26428 -0.37798,0.56768 -0.37798,0.67421 0,0.10653 -0.17009,0.24767 -0.37797,0.31365 -0.20789,0.066 -0.37798,0.28433 -0.37798,0.48521 0,0.235 -0.13024,0.36524 -0.36524,0.36524 -0.20088,0 -0.41631,0.16091 -0.47873,0.35757 -0.0624,0.19666 -0.28076,0.40131 -0.4852,0.45478 -0.21004,0.0549 -0.37172,0.25822 -0.37172,0.46739 0,0.2036 -0.17009,0.58641 -0.37798,0.8507 -0.20788,0.26428 -0.37797,0.56768 -0.37797,0.67421 0,0.10653 -0.17009,0.24767 -0.37798,0.31365 -0.20789,0.066 -0.37798,0.28433 -0.37798,0.48521 0,0.23925 -0.13038,0.36524 -0.37797,0.36524 -0.25199,0 -0.37798,0.12599 -0.37798,0.37797 0,0.20789 -0.12584,0.37798 -0.27964,0.37798 -0.1538,0 -0.47272,0.35132 -0.708706,0.78071 -0.235984,0.42939 -0.540009,0.98218 -0.675613,1.22842 -0.135599,0.24625 -0.369472,0.44772 -0.519716,0.44772 -0.150241,0 -0.273169,0.16017 -0.273169,0.35593 0,0.197 -0.168783,0.40007 -0.377976,0.45478 -0.207888,0.0544 -0.377976,0.22445 -0.377976,0.37798 0,0.15352 -0.17009,0.32361 -0.377978,0.37797 -0.26656,0.0697 -0.377976,0.25778 -0.377976,0.63804 0,0.33452 -0.143478,0.6288 -0.377976,0.77525 -0.207885,0.12982 -0.377975,0.33493 -0.377975,0.4558 0,0.12087 -0.135898,0.36992 -0.301996,0.55345 -0.426024,0.47076 -0.1768,0.7355 0.692375,0.7355 0.560245,0 0.84836,0.11767 1.156856,0.47247 0.380754,0.4379 0.534048,0.47247 2.095312,0.47247 1.525564,0 1.693834,0.0357 1.783344,0.37798 0.0827,0.31616 0.25779,0.37797 1.07078,0.37797 0.76725,0 1.02164,0.0796 1.20798,0.37798 0.172,0.27542 0.44073,0.37798 0.9904,0.37798 0.61415,0 0.75435,0.0665 0.75435,0.35775 0,0.38835 0.34975,0.58719 1.03285,0.58719 0.27603,0 0.47109,0.13811 0.53382,0.37797 0.0544,0.20789 0.22864,0.37798 0.38728,0.37798 0.15864,0 0.34242,0.17009 0.4084,0.37797 0.0901,0.28384 0.28595,0.37798 0.78639,0.37798 0.49671,0 0.69042,0.0918 0.76068,0.3605 0.0519,0.19828 0.2565,0.40293 0.45478,0.45478 0.19828,0.0519 0.36051,0.2298 0.36051,0.39545 0,0.16565 0.12594,0.30118 0.27988,0.30118 0.15393,0 0.33192,0.23387 0.39554,0.51971 0.23095,1.03778 0.29963,1.18118 0.56573,1.18118 0.14891,0 0.27075,0.0718 0.27075,0.15959 0,0.0878 0.21251,0.40669 0.47224,0.70871 0.25973,0.30201 0.47234,0.74046 0.47247,0.97433 1.3e-4,0.23387 0.064,0.42589 0.14197,0.4267 0.24299,0.003 0.61421,0.98962 0.61421,1.63321 0,0.35716 0.12206,0.68269 0.29153,0.77753 0.20165,0.11286 0.32701,0.58651 0.40666,1.53649 0.0633,0.75533 0.22979,1.48799 0.36993,1.62813 0.18287,0.18286 0.2548,0.8419 0.2548,2.33443 0,1.91365 0.0302,2.08921 0.37798,2.1996 0.36974,0.11735 0.37797,0.28594 0.37797,7.7392 0,7.4603 -0.008,7.62131 -0.37797,7.71809 -0.34442,0.0901 -0.37798,0.25778 -0.37798,1.88878 0,1.28722 -0.0729,1.85044 -0.25957,2.00536 -0.14277,0.11849 -0.3146,0.6302 -0.38185,1.13714 -0.0673,0.50694 -0.23784,1.01763 -0.3791,1.13487 -0.14127,0.11724 -0.30544,0.45613 -0.36484,0.7531 -0.0594,0.29698 -0.22206,0.65651 -0.36148,0.79896 -0.13942,0.14246 -0.37022,0.55668 -0.51288,0.92048 -0.14266,0.3638 -0.37294,0.79572 -0.51173,0.95982 -0.1388,0.1641 -0.25236,0.38805 -0.25236,0.49768 0,0.10962 -0.17009,0.24379 -0.37798,0.29815 -0.27404,0.0717 -0.37797,0.25778 -0.37797,0.67685 0,0.38459 -0.12649,0.6457 -0.37798,0.7803 -0.20788,0.11125 -0.37797,0.31694 -0.37797,0.45707 0,0.14014 -0.17009,0.29927 -0.37798,0.35364 -0.20789,0.0544 -0.37798,0.22864 -0.37798,0.38728 0,0.15864 -0.17009,0.34242 -0.37797,0.40841 -0.20789,0.066 -0.37798,0.28432 -0.37798,0.4852 0,0.23501 -0.13024,0.36524 -0.36524,0.36524 -0.20088,0 -0.41631,0.16091 -0.47873,0.35757 -0.0624,0.19667 -0.28076,0.40132 -0.4852,0.45478 -0.20445,0.0535 -0.37172,0.22282 -0.37172,0.37634 0,0.15352 -0.17009,0.32361 -0.37798,0.37798 -0.20788,0.0544 -0.37797,0.22445 -0.37797,0.37797 0,0.15353 -0.17009,0.32361 -0.37798,0.37798 -0.20789,0.0544 -0.37798,0.23437 -0.37798,0.40002 0,0.16671 -0.15562,0.30117 -0.34858,0.30117 -0.19172,0 -0.58644,0.20439 -0.87715,0.45419 -0.49617,0.42635 -1.23476,0.67974 -1.98129,0.67974 -0.17873,0 -0.5508,-0.19406 -0.82683,-0.43124 -0.47188,-0.40548 -0.50186,-0.52976 -0.50186,-2.08072 0,-1.41561 0.0536,-1.69536 0.37797,-1.97311 0.35005,-0.29971 0.37798,-0.5575 0.37798,-3.48778 0,-2.97073 -0.0231,-3.17651 -0.37798,-3.36643 -0.29915,-0.16011 -0.37797,-0.39571 -0.37797,-1.12987 0,-0.71222 -0.0874,-0.98882 -0.37662,-1.19137 -0.20714,-0.14509 -0.43099,-0.53563 -0.49744,-0.86787 -0.0665,-0.33225 -0.279667,-0.6891 -0.473823,-0.79301 -0.194157,-0.10391 -0.35301,-0.37152 -0.35301,-0.5947 0,-0.6175 -2.745748,-3.1717 -3.409559,-3.1717 -0.356168,0 -0.545607,-0.11662 -0.613952,-0.37797 -0.07493,-0.28656 -0.257781,-0.37798 -0.755952,-0.37798 -0.483626,0 -0.68158,-0.0936 -0.749797,-0.35444 -0.07588,-0.29016 -0.317852,-0.36878 -1.334262,-0.4335 -0.815083,-0.0519 -1.363967,-0.18982 -1.59788,-0.40151 -0.305202,-0.27621 -0.798446,-0.32246 -3.438895,-0.32246 -2.679507,0 -3.113214,0.0419 -3.316809,0.32032 -0.166875,0.22822 -0.595537,0.34333 -1.490808,0.40034 -0.984956,0.0627 -1.297725,0.15688 -1.446908,0.43563 -0.117012,0.21864 -0.394869,0.35562 -0.721347,0.35562 -0.292063,0 -0.684953,0.17009 -0.873088,0.37798 -0.188134,0.20788 -0.503034,0.37797 -0.699772,0.37797 -0.196742,0 -0.554752,0.21261 -0.795581,0.47247 -0.240829,0.25986 -0.534424,0.47247 -0.652434,0.47247 -0.118009,0 -0.214564,0.13024 -0.214564,0.28942 0,0.15917 -0.136514,0.3418 -0.303363,0.40582 -0.166851,0.064 -0.613336,0.40113 -0.992187,0.74912 -0.378855,0.34799 -0.742691,0.63311 -0.808525,0.63361 -0.06583,5.3e-4 -0.164176,0.17099 -0.21854,0.37888 -0.05437,0.20789 -0.234373,0.37798 -0.400018,0.37798 -0.165648,0 -0.301175,0.0856 -0.301175,0.19023 0,0.10463 -0.212612,0.3751 -0.472472,0.60105 -0.320128,0.27834 -0.472469,0.60599 -0.472469,1.01614 0,0.44639 -0.09924,0.63129 -0.377976,0.70418 -0.332941,0.0871 -0.377976,0.25778 -0.377976,1.4328 0,1.14054 -0.05481,1.36329 -0.377978,1.53625 -0.351169,0.18794 -0.377976,0.39571 -0.377976,2.92931 0,2.53361 0.02681,2.74138 0.377976,2.92932 0.301503,0.16136 0.377978,0.39571 0.377978,1.15827 0,0.79705 0.06284,0.97242 0.377976,1.05483 0.207886,0.0544 0.377976,0.246 0.377976,0.42586 0,0.17986 0.17009,0.52313 0.377975,0.76283 0.207886,0.23969 0.377976,0.5484 0.377976,0.68602 0,0.13761 0.212612,0.38951 0.472472,0.55978 0.259858,0.17026 0.472469,0.42736 0.472469,0.57132 0,0.14396 0.17009,0.26174 0.377976,0.26174 0.251984,0 0.377976,0.126 0.377976,0.37798 0,0.25198 0.125994,0.37798 0.377975,0.37798 0.251984,0 0.377979,0.12599 0.377979,0.37797 0,0.20789 0.08561,0.37798 0.190235,0.37798 0.104632,0 0.375103,0.21261 0.601046,0.47247 0.225947,0.25986 0.602353,0.47247 0.836462,0.47247 0.259675,0 0.472432,0.14739 0.545618,0.37798 0.08393,0.26445 0.285946,0.37797 0.672592,0.37797 0.347954,0 0.640054,0.13999 0.788678,0.37798 0.16805,0.26909 0.440725,0.37797 0.946542,0.37797 0.569833,0 0.710493,0.0705 0.710493,0.35594 0,0.35136 0.473136,0.58112 1.207588,0.58642 0.196427,0.002 0.470117,0.15141 0.6082,0.33331 0.280511,0.36953 0.356323,1.74815 0.09613,1.74815 -0.09182,0 -0.211426,0.17008 -0.26579,0.37797 -0.07854,0.30032 -0.25778,0.37798 -0.872487,0.37798 -0.530434,0 -0.773644,0.0817 -0.773644,0.25985 0,0.29611 -0.804064,0.4961 -1.994501,0.4961 -0.447328,0 -0.925705,0.11184 -1.063059,0.24853 -0.331025,0.32943 -2.216163,0.69641 -3.577391,0.69641 -0.600192,0 -1.143815,0.085 -1.208056,0.18899 -0.06424,0.10394 -0.404421,0.18899 -0.755952,0.18899 -0.351533,0 -0.691713,0.085 -0.755954,0.18898 -0.07521,0.12169 -3.305535,0.18899 -9.071427,0.18899 -5.765893,0 -8.996222,-0.0673 -9.07143,-0.18899 z"
       style="fill:#010101;fill-opacity:1;stroke-width:0.188988" />
  </g>
</svg>
