<?xml version="1.0" encoding="UTF-8" standalone="no"?>
<svg
   xmlns:dc="http://purl.org/dc/elements/1.1/"
   xmlns:cc="http://creativecommons.org/ns#"
   xmlns:rdf="http://www.w3.org/1999/02/22-rdf-syntax-ns#"
   xmlns:svg="http://www.w3.org/2000/svg"
   xmlns="http://www.w3.org/2000/svg"
   xmlns:sodipodi="http://sodipodi.sourceforge.net/DTD/sodipodi-0.dtd"
   xmlns:inkscape="http://www.inkscape.org/namespaces/inkscape"
   width="200"
   height="200"
   viewBox="0 0 52.916668 52.916666"
   version="1.1"
   id="svg8"
   inkscape:version="1.0 (4035a4fb49, 2020-05-01)"
   sodipodi:docname="progress.svg">
  <defs
     id="defs2">
    <inkscape:path-effect
       effect="envelope"
       id="path-effect4658"
       is_visible="true"
       yy="true"
       xx="true"
       bendpath1="m -199.08406,108.42369 h 7.0057"
       bendpath2="m -192.07836,108.42369 v 6.75242"
       bendpath3="m -199.08406,115.17611 h 7.0057"
       bendpath4="m -199.08406,108.42369 v 6.75242" />
    <inkscape:path-effect
       effect="bend_path"
       id="path-effect4656"
       is_visible="true"
       bendpath="m -192.00142,114.60623 c 2.12577,-0.53066 4.48261,0.85111 7.0057,0"
       prop_scale="1"
       scale_y_rel="false"
       vertical="false"
       bendpath-nodetypes="cc" />
    <inkscape:path-effect
       effect="bounding_box"
       id="path-effect4654"
       is_visible="true"
       linkedpath=""
       visualbounds="false" />
  </defs>
  <sodipodi:namedview
     id="base"
     pagecolor="#ffffff"
     bordercolor="#666666"
     borderopacity="1.0"
     inkscape:pageopacity="0.0"
     inkscape:pageshadow="2"
     inkscape:zoom="2"
     inkscape:cx="-123.57845"
     inkscape:cy="126.30993"
     inkscape:document-units="px"
     inkscape:current-layer="layer1"
     showgrid="false"
     fit-margin-top="0"
     fit-margin-left="0"
     fit-margin-right="0"
     fit-margin-bottom="0"
     inkscape:window-width="1920"
     inkscape:window-height="1027"
     inkscape:window-x="-8"
     inkscape:window-y="-8"
     inkscape:window-maximized="1"
     showguides="false"
     inkscape:object-nodes="true"
     units="px"
     inkscape:snap-page="true"
     inkscape:document-rotation="0" />
  <metadata
     id="metadata5">
    <rdf:RDF>
      <cc:Work
         rdf:about="">
        <dc:format>image/svg+xml</dc:format>
        <dc:type
           rdf:resource="http://purl.org/dc/dcmitype/StillImage" />
        <dc:title />
      </cc:Work>
    </rdf:RDF>
  </metadata>
  <g
     inkscape:label="Layer 1"
     inkscape:groupmode="layer"
     id="layer1"
     transform="translate(98.048812,-95.14345)">
    <g
       style="stroke-width:0.5"
       id="g5375"
       transform="matrix(2,0,0,2,-98.048812,95.143449)">
      <rect
         ry="1.984375"
         rx="1.984375"
         style="opacity:1;fill:#222222;fill-opacity:1;fill-rule:nonzero;stroke:none;stroke-width:0.25;stroke-linecap:butt;stroke-linejoin:round;stroke-miterlimit:4;stroke-dasharray:none;stroke-dashoffset:0;stroke-opacity:0.90944878;paint-order:normal"
         id="rect5363"
         width="26.458334"
         height="26.458334"
         x="0"
         y="-1.110223e-16" />
      <rect
         ry="1.3229166"
         rx="1.3229166"
         y="1.322917"
         x="1.322917"
         height="23.8125"
         width="23.8125"
         id="rect5365"
         style="opacity:1;fill:#9c27b0;fill-opacity:1;fill-rule:nonzero;stroke:none;stroke-width:0.25;stroke-linecap:butt;stroke-linejoin:round;stroke-miterlimit:4;stroke-dasharray:none;stroke-dashoffset:0;stroke-opacity:0.90944878;paint-order:normal" />
      <path
         inkscape:connector-curvature="0"
         style="font-style:normal;font-variant:normal;font-weight:bold;font-stretch:normal;font-size:4.23333311px;line-height:4.23333311px;font-family:Montserrat;-inkscape-font-specification:'Montserrat Bold';text-align:center;text-anchor:middle;opacity:1;fill:#222222;fill-opacity:1;fill-rule:nonzero;stroke:none;stroke-width:0.24999999;stroke-linecap:butt;stroke-linejoin:round;stroke-miterlimit:4;stroke-dasharray:none;stroke-dashoffset:0;stroke-opacity:0.90944878;paint-order:normal"
         d="m 10.804879,3.4467321 a 0.15871531,0.15871531 0 0 0 -0.136382,0.1146841 0.15871531,0.15871531 0 0 0 0,0.00252 C 10.140525,3.6384432 9.6416792,3.965285 9.1881282,4.6909495 8.7115532,5.4663873 8.3524323,6.579977 8.0772328,7.9666052 6.7809381,7.5183239 5.6533861,7.2662043 4.7408247,7.2822132 3.7816738,7.2991518 3.1147858,7.5444251 2.8147338,8.0695121 a 0.15871531,0.15871531 0 0 0 0,0.00253 C 2.7114104,8.2598824 2.6603742,8.4734102 2.6603742,8.7068424 c 0,0.4210159 0.1552856,0.8916088 0.4475822,1.4177576 0.4325522,0.800072 1.2077345,1.656709 2.2422503,2.565227 -1.0505355,0.923913 -1.835515,1.786695 -2.2682869,2.580106 a 0.15871531,0.15871531 0 0 0 0,0.002 c -0.2751035,0.525219 -0.4215456,0.985636 -0.4215456,1.389797 0,0.23355 0.051235,0.447071 0.1543596,0.634798 a 0.15871531,0.15871531 0 0 0 0,0.0025 c 0.291392,0.51696 0.943761,0.765711 1.8864159,0.799078 a 0.15871531,0.15871531 0 0 0 0.00252,0 c 0.9137959,0.02385 2.0535277,-0.233556 3.3717428,-0.696171 0.2741331,1.348491 0.6233467,2.453038 1.0867197,3.23598 a 0.15871531,0.15871531 0 0 0 0,0.002 c 0.500317,0.825527 1.0505898,1.281995 1.6589068,1.281995 0.601456,0 1.143394,-0.456502 1.635347,-1.281995 a 0.15871531,0.15871531 0 0 0 0,-0.002 c 0.463775,-0.783622 0.815602,-1.888301 1.089818,-3.238461 1.329834,0.457616 2.472598,0.71099 3.381042,0.686873 0.941434,-0.02479 1.593573,-0.269105 1.885797,-0.78482 v -0.0025 c 0.112868,-0.188987 0.168617,-0.409658 0.168617,-0.651537 0,-0.404148 -0.146131,-0.860011 -0.421545,-1.377461 a 0.15871531,0.15871531 0 0 0 0,-0.0025 c -0.442823,-0.797089 -1.23398,-1.657456 -2.293703,-2.579495 1.035751,-0.909437 1.822657,-1.768065 2.270146,-2.575146 h -0.0025 c 0.292427,-0.5180303 0.447581,-0.9804659 0.447581,-1.3941992 0,-0.2419357 -0.05577,-0.4625695 -0.168619,-0.6515355 C 18.512152,7.5425303 17.843709,7.2989275 16.877611,7.2822708 15.967425,7.2660519 14.83776,7.5183689 13.538724,7.964183 13.2636,6.5792764 12.907093,5.4657804 12.430927,4.6910059 11.93891,3.8904337 11.406296,3.446827 10.820996,3.446827 a 0.15871531,0.15871531 0 0 0 -0.01612,0 z m 0.01612,0.9373179 c 0.150341,0 0.307715,0.067598 0.482918,0.2318503 0.175202,0.1642516 0.359966,0.4245219 0.545528,0.7798595 0.346282,0.6549206 0.623917,1.637559 0.838751,2.8683679 C 12.063219,8.5044145 11.441451,8.7755104 10.823482,9.0818019 10.1896,8.7745053 9.5580522,8.5050791 8.9302472,8.2641277 9.1450812,7.0333188 9.4227172,6.0506804 9.7689982,5.3957598 9.9543492,5.040836 10.140769,4.7800283 10.319487,4.6159003 10.498204,4.4517709 10.66064,4.38405 10.821003,4.38405 Z M 4.7637673,8.1296051 c 0.0911,-0.00115 0.1872412,6.346e-4 0.2888825,0.00565 0.7474087,0.037804 1.7184191,0.2872155 2.8559695,0.7048491 C 7.8091824,9.5057349 7.7347419,10.1847 7.6885481,10.876545 7.1087668,11.268017 6.5593987,11.671897 6.038942,12.090331 5.1011119,11.31416 4.3963857,10.596689 3.988867,9.9627665 a 0.15871531,0.15871531 0 0 0 0,-0.00253 C 3.7681673,9.6213132 3.6336709,9.3292372 3.580961,9.0911211 3.5282498,8.8530027 3.5516668,8.6760009 3.6373786,8.5331928 a 0.15871531,0.15871531 0 0 0 0.00252,-0.00253 c 0.077723,-0.1367995 0.2165721,-0.2425416 0.4500609,-0.3136849 0.1751178,-0.053358 0.4005682,-0.083788 0.673853,-0.0874 z m 12.1033117,0 c 0.27339,0.00358 0.499447,0.033915 0.676332,0.0874 0.234475,0.070887 0.376969,0.1768772 0.458741,0.313679 0.08224,0.1423488 0.106741,0.319181 0.05208,0.5579284 -0.05467,0.2387484 -0.192044,0.5324907 -0.412866,0.8716061 a 0.15871531,0.15871531 0 0 0 0,0.00253 c -0.407388,0.6412594 -1.116485,1.3628534 -2.061855,2.1393474 -0.520806,-0.418729 -1.06877,-0.824565 -1.648986,-1.216282 -0.04645,-0.698312 -0.126237,-1.3800514 -0.23247,-2.0457355 1.137528,-0.4174882 2.114328,-0.6667861 2.877667,-0.7048491 h 0.002 c 0.10164,-0.00496 0.198374,-0.00669 0.289502,-0.00565 z m -4.035678,1.0433264 c 0.04584,0.3539495 0.08088,0.7148688 0.112198,1.0798995 -0.175573,-0.108229 -0.351341,-0.216193 -0.526931,-0.327937 a 0.15871531,0.15871531 0 0 0 -0.0069,-0.00427 C 12.214625,9.8121648 12.028243,9.7125709 11.840155,9.6112854 12.174114,9.458371 12.504862,9.3113246 12.831407,9.1730008 Z m -4.0418758,0.00935 c 0.326574,0.1336185 0.657179,0.2795376 0.991253,0.4314618 -0.186048,0.1011782 -0.370227,0.2010224 -0.559789,0.3093389 a 0.15871531,0.15871531 0 0 0 -0.0049,0.00196 c -0.182855,0.1129498 -0.361907,0.2210548 -0.541185,0.3304198 0.03138,-0.364238 0.06877,-0.7236537 0.114684,-1.0730809 z m 2.0060608,0.9373175 c 0.380181,0.198616 0.760401,0.400801 1.140652,0.613721 0.371731,0.21239 0.734257,0.434199 1.091678,0.660834 0.02131,0.42509 0.03285,0.856072 0.03285,1.295632 0,0.432446 -0.01154,0.86114 -0.03285,1.286333 -0.349844,0.226046 -0.713033,0.446287 -1.091678,0.658356 a 0.15871531,0.15871531 0 0 0 -0.0025,0.0025 c -0.371354,0.219764 -0.744002,0.424638 -1.115216,0.623009 -0.383491,-0.197657 -0.757492,-0.404235 -1.1195748,-0.62302 a 0.15871531,0.15871531 0 0 0 -0.0074,-0.0025 c -0.386186,-0.212008 -0.751044,-0.432481 -1.1010585,-0.658357 -0.014251,-0.425344 -0.021077,-0.853753 -0.021077,-1.286334 0,-0.43968 0.00695,-0.870323 0.021076,-1.295631 0.3576325,-0.22649 0.7242425,-0.448455 1.1034555,-0.660834 a 0.15871531,0.15871531 0 0 0 0.0025,0 c 0.3630898,-0.211751 0.7289838,-0.416062 1.0991248,-0.613701 z m 0.02542,1.485328 c -0.188874,0 -0.3708,0.04999 -0.538711,0.143202 -0.171397,0.08681 -0.3084208,0.221062 -0.4029468,0.391169 -0.09393,0.16904 -0.143202,0.354836 -0.143202,0.550488 0,0.188829 0.04989,0.373214 0.143202,0.541191 a 0.15871531,0.15871531 0 0 0 0.0025,0.0025 c 0.09539,0.162205 0.2318638,0.293164 0.4004678,0.38683 0.167961,0.09331 0.349881,0.142581 0.538712,0.142581 0.182147,0 0.360733,-0.04998 0.52755,-0.142581 0.168607,-0.09366 0.305067,-0.224631 0.400468,-0.38683 a 0.15871531,0.15871531 0 0 0 0.0025,-0.0025 c 0.0933,-0.167972 0.142582,-0.352359 0.142582,-0.541191 0,-0.195699 -0.04866,-0.381459 -0.142582,-0.550488 -0.09453,-0.170196 -0.231581,-0.304361 -0.402947,-0.391169 -0.166866,-0.09271 -0.345443,-0.143202 -0.527551,-0.143202 z m -3.1839118,0.440762 c -0.00372,0.214088 -0.00744,0.42643 -0.00744,0.644097 0,0.211732 0.00372,0.42303 0.00744,0.634798 -0.3033437,-0.208533 -0.599767,-0.419111 -0.8809054,-0.634798 0.2813243,-0.220605 0.5773205,-0.434325 0.8809054,-0.644097 z m 6.3467368,0 c 0.305228,0.210184 0.604168,0.422996 0.890825,0.644097 -0.286462,0.216167 -0.585836,0.425848 -0.890825,0.634798 0.0071,-0.211604 0.01673,-0.42321 0.01673,-0.634798 0,-0.217475 -0.0095,-0.430149 -0.01673,-0.644097 z M 6.0296423,13.2781 c 0.5275631,0.418627 1.0784643,0.823966 1.6589043,1.215663 0.046328,0.690981 0.1207678,1.369074 0.2200723,2.033955 -1.160654,0.425172 -2.144836,0.675309 -2.8913055,0.705469 C 4.61878,17.248937 4.3031245,17.217547 4.0731758,17.146397 3.8432258,17.075227 3.7056835,16.970535 3.6280732,16.837059 3.5506142,16.70381 3.5280247,16.531303 3.5809642,16.295868 3.6338912,16.060432 3.7639564,15.76801 3.9770937,15.4286 a 0.15871531,0.15871531 0 0 0 0.00252,-0.002 c 0.3832817,-0.631258 1.0899612,-1.357034 2.0500742,-2.148612 z m 9.5591617,0 c 0.96081,0.791844 1.672955,1.518278 2.064332,2.150501 a 0.15871531,0.15871531 0 0 0 0,0.0025 c 0.216985,0.339287 0.350189,0.630109 0.402948,0.864788 0.05275,0.234678 0.02916,0.40539 -0.05146,0.53871 a 0.15871531,0.15871531 0 0 0 0,0.0025 c -0.07762,0.13351 -0.217644,0.238174 -0.447582,0.309341 -0.229941,0.07116 -0.545612,0.102586 -0.944138,0.08679 -0.746585,-0.0301 -1.734583,-0.280105 -2.903084,-0.70547 0.09934,-0.664867 0.1745,-1.342932 0.220691,-2.033956 0.580438,-0.391713 1.13072,-0.797047 1.658285,-1.215663 z m -6.9139598,1.83434 c 0.179297,0.11221 0.356256,0.226872 0.546149,0.335376 0.183963,0.108171 0.37225,0.208311 0.559787,0.30934 -0.334633,0.153247 -0.66654,0.299067 -0.993731,0.437665 -0.04593,-0.354709 -0.08083,-0.716546 -0.112201,-1.082381 z m 4.2687668,0.0025 c -0.03133,0.365031 -0.06636,0.72595 -0.11221,1.079899 -0.326544,-0.138319 -0.657293,-0.284745 -0.991251,-0.437662 0.188098,-0.101294 0.374478,-0.200883 0.569706,-0.30934 a 0.15871531,0.15871531 0 0 0 0.002,-0.0025 c 0.182513,-0.107351 0.356337,-0.219479 0.531892,-0.330417 z m -2.148023,1.171648 c 0.628416,0.308237 1.259678,0.581275 1.895095,0.829452 -0.207335,1.202298 -0.481959,2.171875 -0.829453,2.844192 a 0.15871531,0.15871531 0 0 0 0,0.0025 c -0.181416,0.358889 -0.367022,0.621577 -0.543669,0.787298 -0.176647,0.165722 -0.336712,0.23433 -0.496555,0.23433 -0.164814,0 -0.330249,-0.07084 -0.510814,-0.23681 -0.180567,-0.165946 -0.3676438,-0.428443 -0.5529688,-0.78727 -0.347492,-0.672316 -0.622117,-1.641893 -0.829453,-2.84419 0.625889,-0.247397 1.2488838,-0.522441 1.8678178,-0.829454 z"
         id="text5407" />
      <path
         inkscape:connector-curvature="0"
         id="path5369"
         d="m 0.72760492,18.520836 v 4.167188 c 0,1.539081 1.23904398,2.778124 2.77812498,2.778124 H 22.952604 c 1.539081,0 2.778125,-1.239043 2.778125,-2.778124 v -4.167188 z"
         style="opacity:1;fill:#222222;fill-opacity:1;fill-rule:nonzero;stroke:none;stroke-width:0.24999997;stroke-linecap:butt;stroke-linejoin:round;stroke-miterlimit:4;stroke-dasharray:none;stroke-dashoffset:0;stroke-opacity:0.90944878;paint-order:normal" />
      <g
         id="text5373"
         style="font-style:normal;font-variant:normal;font-weight:500;font-stretch:normal;font-size:4.23333311px;line-height:4.23333311px;font-family:Montserrat;-inkscape-font-specification:'Montserrat Medium';text-align:center;letter-spacing:-0.26458332px;text-anchor:middle;opacity:1;fill:#eeeeee;fill-opacity:1;fill-rule:nonzero;stroke:none;stroke-width:0.25;stroke-linecap:butt;stroke-linejoin:round;stroke-miterlimit:4;stroke-dasharray:none;stroke-dashoffset:0;stroke-opacity:0.90944878;paint-order:normal"
         aria-label="PROGRESS">
        <path
           id="path4608"
           style="font-style:normal;font-variant:normal;font-weight:500;font-stretch:normal;font-size:4.23333311px;font-family:Montserrat;-inkscape-font-specification:'Montserrat Medium';letter-spacing:-0.26458332px;fill:#eeeeee;fill-opacity:1;stroke-width:0.25"
           d="m 3.760524,20.325294 q 0.5587999,0 0.8635999,0.2667 0.3090333,0.2667 0.3090333,0.753534 0,0.508 -0.3090333,0.791633 -0.3048,0.2794 -0.8635999,0.2794 h -0.6477 v 0.872067 H 2.5455574 v -2.963334 z m -0.029633,1.591734 q 0.3217333,0 0.4910667,-0.1397 0.1735666,-0.1397 0.1735666,-0.414867 0,-0.270933 -0.1735666,-0.4064 Q 4.0526239,20.820594 3.7308906,20.820594 H 3.112824 v 1.096434 z"
           inkscape:connector-curvature="0" />
        <path
           id="path4610"
           style="font-style:normal;font-variant:normal;font-weight:500;font-stretch:normal;font-size:4.23333311px;font-family:Montserrat;-inkscape-font-specification:'Montserrat Medium';letter-spacing:-0.26458332px;fill:#eeeeee;fill-opacity:1;stroke-width:0.25"
           d="m 6.9959811,23.288628 -0.5122333,-0.8763 q -0.033867,0.0042 -0.1058333,0.0042 H 5.7090478 v 0.872067 H 5.1417812 v -2.963334 h 1.2361333 q 0.5757333,0 0.8889999,0.2667 0.3132667,0.2667 0.3132667,0.753534 0,0.347133 -0.1524,0.592666 -0.1481667,0.245534 -0.4360333,0.3683 l 0.6519333,0.982134 z m -1.2869333,-1.3716 h 0.6688667 q 0.3217333,0 0.4910666,-0.1397 0.1693333,-0.1397 0.1693333,-0.414867 0,-0.270933 -0.1693333,-0.4064 Q 6.6996478,20.820594 6.3779145,20.820594 H 5.7090478 Z"
           inkscape:connector-curvature="0" />
        <path
           id="path4612"
           style="font-style:normal;font-variant:normal;font-weight:500;font-stretch:normal;font-size:4.23333311px;font-family:Montserrat;-inkscape-font-specification:'Montserrat Medium';letter-spacing:-0.26458332px;fill:#eeeeee;fill-opacity:1;stroke-width:0.25"
           d="m 9.2826426,20.287194 q 0.4402667,0 0.8001004,0.198967 0.364066,0.198967 0.5715,0.5461 0.207433,0.347133 0.207433,0.770467 0,0.423333 -0.207433,0.7747 -0.207434,0.347133 -0.5715,0.550333 -0.3598337,0.2032 -0.8001004,0.2032 -0.4402666,0 -0.8043333,-0.2032 -0.3598333,-0.2032 -0.5672666,-0.550333 -0.2074333,-0.351367 -0.2074333,-0.7747 0,-0.423334 0.2074333,-0.770467 0.2074333,-0.347133 0.5672666,-0.5461 0.3640667,-0.198967 0.8043333,-0.198967 z m 0.00847,0.508 q -0.2709333,0 -0.5037666,0.135467 -0.2328334,0.131233 -0.3683,0.364067 -0.1354667,0.2286 -0.1354667,0.508 0,0.2794 0.1354667,0.512233 0.1397,0.232833 0.3683,0.3683 0.2328333,0.135467 0.5037666,0.135467 0.2667,0 0.4953,-0.135467 0.2285994,-0.135467 0.3598334,-0.3683 0.135466,-0.232833 0.135466,-0.512233 0,-0.2794 -0.135466,-0.508 -0.131234,-0.232834 -0.3598334,-0.364067 -0.2286,-0.135467 -0.4953,-0.135467 z"
           inkscape:connector-curvature="0" />
        <path
           id="path4614"
           style="font-style:normal;font-variant:normal;font-weight:500;font-stretch:normal;font-size:4.23333311px;font-family:Montserrat;-inkscape-font-specification:'Montserrat Medium';letter-spacing:-0.26458332px;fill:#eeeeee;fill-opacity:1;stroke-width:0.25"
           d="m 13.00652,21.815428 h 0.4953 v 1.126066 q -0.232833,0.173567 -0.550333,0.283634 -0.3175,0.105833 -0.6223,0.105833 -0.436034,0 -0.795867,-0.2032 -0.3556,-0.2032 -0.563033,-0.550333 -0.207433,-0.351367 -0.207433,-0.7747 0,-0.423334 0.211666,-0.766234 0.211667,-0.347133 0.575734,-0.5461 0.368299,-0.2032 0.812799,-0.2032 0.3175,0 0.626534,0.1143 0.309033,0.1143 0.5334,0.313267 l -0.321734,0.4191 q -0.169333,-0.160867 -0.3937,-0.249767 -0.220133,-0.0889 -0.4445,-0.0889 -0.2794,0 -0.516466,0.135467 -0.232834,0.131233 -0.3683,0.364067 -0.135467,0.232833 -0.135467,0.508 0,0.2794 0.135467,0.512233 0.1397,0.232833 0.372533,0.3683 0.232833,0.135467 0.516467,0.135467 0.1524,0 0.3175,-0.04657 0.169333,-0.0508 0.321733,-0.1397 z"
           inkscape:connector-curvature="0" />
        <path
           id="path4616"
           style="font-style:normal;font-variant:normal;font-weight:500;font-stretch:normal;font-size:4.23333311px;font-family:Montserrat;-inkscape-font-specification:'Montserrat Medium';letter-spacing:-0.26458332px;fill:#eeeeee;fill-opacity:1;stroke-width:0.25"
           d="m 15.743768,23.288628 -0.512234,-0.8763 q -0.03387,0.0042 -0.105833,0.0042 h -0.668867 v 0.872067 h -0.567266 v -2.963334 h 1.236133 q 0.575733,0 0.889,0.2667 0.313267,0.2667 0.313267,0.753534 0,0.347133 -0.1524,0.592666 -0.148167,0.245534 -0.436034,0.3683 l 0.651934,0.982134 z m -1.286934,-1.3716 h 0.668867 q 0.321733,0 0.491067,-0.1397 0.169333,-0.1397 0.169333,-0.414867 0,-0.270933 -0.169333,-0.4064 -0.169334,-0.135467 -0.491067,-0.135467 h -0.668867 z"
           inkscape:connector-curvature="0" />
        <path
           id="path4618"
           style="font-style:normal;font-variant:normal;font-weight:500;font-stretch:normal;font-size:4.23333311px;font-family:Montserrat;-inkscape-font-specification:'Montserrat Medium';letter-spacing:-0.26458332px;fill:#eeeeee;fill-opacity:1;stroke-width:0.25"
           d="m 16.684228,20.325294 h 2.1717 v 0.4953 h -1.604433 v 0.732367 h 1.439333 v 0.4953 h -1.439333 v 0.745067 h 1.655233 v 0.4953 h -2.2225 z"
           inkscape:connector-curvature="0" />
        <path
           id="path4620"
           style="font-style:normal;font-variant:normal;font-weight:500;font-stretch:normal;font-size:4.23333311px;font-family:Montserrat;-inkscape-font-specification:'Montserrat Medium';letter-spacing:-0.26458332px;fill:#eeeeee;fill-opacity:1;stroke-width:0.25"
           d="m 21.076973,21.087294 q -0.2286,-0.1397 -0.4699,-0.2159 -0.237067,-0.0762 -0.4191,-0.0762 -0.2032,0 -0.321733,0.0762 -0.118534,0.0762 -0.118534,0.211667 0,0.122767 0.08043,0.207433 0.08467,0.08043 0.207433,0.135467 0.127,0.0508 0.3429,0.1143 0.300566,0.0889 0.491066,0.1778 0.194734,0.0889 0.3302,0.262467 0.135467,0.173566 0.135467,0.4572 0,0.270933 -0.148167,0.474133 -0.143933,0.198967 -0.402166,0.3048 -0.254,0.105833 -0.5842,0.105833 -0.347133,0 -0.677333,-0.127 -0.3302,-0.131233 -0.575734,-0.347133 l 0.237067,-0.4826 q 0.224367,0.207433 0.503767,0.325967 0.2794,0.118533 0.520699,0.118533 0.237067,0 0.372534,-0.0889 0.135466,-0.09313 0.135466,-0.249767 0,-0.127 -0.08467,-0.207433 -0.08043,-0.08467 -0.207434,-0.135467 -0.127,-0.0508 -0.347133,-0.1143 -0.300566,-0.0889 -0.491066,-0.173566 -0.1905,-0.08467 -0.325967,-0.254 -0.135467,-0.173567 -0.135467,-0.452967 0,-0.258233 0.135467,-0.448733 0.1397,-0.194734 0.389467,-0.300567 0.254,-0.105833 0.584199,-0.105833 0.287867,0 0.567267,0.08467 0.283633,0.08467 0.503767,0.2286 z"
           inkscape:connector-curvature="0" />
        <path
           id="path4622"
           style="font-style:normal;font-variant:normal;font-weight:500;font-stretch:normal;font-size:4.23333311px;font-family:Montserrat;-inkscape-font-specification:'Montserrat Medium';letter-spacing:-0.26458332px;fill:#eeeeee;fill-opacity:1;stroke-width:0.25"
           d="m 23.47476,21.087294 q -0.2286,-0.1397 -0.4699,-0.2159 -0.237067,-0.0762 -0.4191,-0.0762 -0.2032,0 -0.321733,0.0762 -0.118534,0.0762 -0.118534,0.211667 0,0.122767 0.08043,0.207433 0.08467,0.08043 0.207433,0.135467 0.127,0.0508 0.3429,0.1143 0.300567,0.0889 0.491067,0.1778 0.194733,0.0889 0.3302,0.262467 0.135466,0.173566 0.135466,0.4572 0,0.270933 -0.148166,0.474133 -0.143934,0.198967 -0.402167,0.3048 -0.254,0.105833 -0.5842,0.105833 -0.347133,0 -0.677333,-0.127 -0.3302,-0.131233 -0.575734,-0.347133 l 0.237067,-0.4826 q 0.224367,0.207433 0.503767,0.325967 0.2794,0.118533 0.5207,0.118533 0.237066,0 0.372533,-0.0889 0.135467,-0.09313 0.135467,-0.249767 0,-0.127 -0.08467,-0.207433 -0.08043,-0.08467 -0.207433,-0.135467 -0.127,-0.0508 -0.347134,-0.1143 -0.300566,-0.0889 -0.491066,-0.173566 -0.1905,-0.08467 -0.325967,-0.254 -0.135467,-0.173567 -0.135467,-0.452967 0,-0.258233 0.135467,-0.448733 0.1397,-0.194734 0.389467,-0.300567 0.254,-0.105833 0.5842,-0.105833 0.287866,0 0.567266,0.08467 0.283634,0.08467 0.503767,0.2286 z"
           inkscape:connector-curvature="0" />
      </g>
    </g>
    <text
       xml:space="preserve"
       style="font-style:normal;font-variant:normal;font-weight:500;font-stretch:normal;font-size:8.46667px;line-height:4.23333px;font-family:Montserrat;-inkscape-font-specification:'Montserrat Medium';text-align:center;text-anchor:middle;opacity:1;fill:#eeeeee;fill-opacity:1;fill-rule:nonzero;stroke:none;stroke-width:4.23333;stroke-linecap:butt;stroke-linejoin:round;stroke-miterlimit:4;stroke-dasharray:none;stroke-dashoffset:0;stroke-opacity:1;paint-order:stroke fill markers"
       x="-355.53735"
       y="24.113144"
       id="text4627-36-3"><tspan
         sodipodi:role="line"
         id="tspan4625-0-6"
         x="-355.53735"
         y="24.113144"
         style="font-style:normal;font-variant:normal;font-weight:500;font-stretch:normal;font-size:8.46667px;font-family:Montserrat;-inkscape-font-specification:'Montserrat Medium';text-align:center;text-anchor:middle;fill:#eeeeee;fill-opacity:1;stroke-width:4.23333">ORD</tspan></text>
    <rect
       y="95.143448"
       x="-98.048813"
       height="52.916668"
       width="52.916668"
       id="rect5363-3"
       style="opacity:1;fill:#222222;fill-opacity:1;fill-rule:nonzero;stroke:none;stroke-width:0.499999;stroke-linecap:butt;stroke-linejoin:round;stroke-miterlimit:4;stroke-dasharray:none;stroke-dashoffset:0;stroke-opacity:0.909449;paint-order:normal"
       rx="3.96875"
       ry="3.96875" />
    <rect
       style="opacity:1;fill:#9c27b0;fill-opacity:1;fill-rule:nonzero;stroke:none;stroke-width:0.499999;stroke-linecap:butt;stroke-linejoin:round;stroke-miterlimit:4;stroke-dasharray:none;stroke-dashoffset:0;stroke-opacity:0.909449;paint-order:normal"
       id="rect5365-8"
       width="47.625"
       height="47.625"
       x="-95.402977"
       y="97.789284"
       rx="2.6458333"
       ry="2.6458333" />
    <path
       style="opacity:1;fill:#222222;fill-opacity:1;fill-rule:nonzero;stroke:none;stroke-width:0.499999;stroke-linecap:butt;stroke-linejoin:round;stroke-miterlimit:4;stroke-dasharray:none;stroke-dashoffset:0;stroke-opacity:0.909449;paint-order:normal"
       d="m -96.593602,132.18512 v 8.33438 c 0,3.07816 2.478088,5.55625 5.55625,5.55625 h 38.893749 c 3.078162,0 5.55625,-2.47809 5.55625,-5.55625 v -8.33438 z"
       id="path5369-4"
       inkscape:connector-curvature="0" />
    <rect
       ry="2.6458333"
       rx="2.6458333"
       y="134.82028"
       x="-94.741516"
       height="8.2020836"
       width="46.302082"
       id="rect819"
       style="fill:#222222;fill-opacity:1;stroke-width:0.264583" />
    <text
       transform="translate(29.106766,-1.155215)"
       id="text340-7-9-1-0"
       y="142.46338"
       x="-100.49781"
       style="font-style:normal;font-variant:normal;font-weight:bold;font-stretch:normal;font-size:8.11389px;line-height:1.25;font-family:Candara;-inkscape-font-specification:'Candara Bold';text-align:center;text-anchor:middle;white-space:pre;inline-size:43.4227;fill:#eeeeee;fill-opacity:1;stroke:none;stroke-width:0.264583"
       xml:space="preserve"><tspan
         x="-100.49781"
         y="142.46338"><tspan>STRUCTURE</tspan></tspan></text>
    <path
       id="path1002"
       d="m -62.89436,124.99936 c -0.109371,-0.0412 -0.317532,-0.29041 -0.420743,-0.50362 -0.0904,-0.18675 -0.09375,-0.28733 -0.09375,-2.81876 0,-1.69961 0.01648,-2.63529 0.04677,-2.65401 0.02572,-0.0159 0.04677,-0.0683 0.04677,-0.11634 0,-0.0481 0.02656,-0.11526 0.05901,-0.14926 0.05409,-0.0566 0.17485,-0.29467 0.17485,-0.34463 0,-0.0117 -0.04039,-0.0212 -0.08975,-0.0212 -0.110064,0 -0.347845,-0.12649 -0.512495,-0.27262 -0.236866,-0.21023 -0.426265,-0.40591 -0.426503,-0.44065 -1.38e-4,-0.0193 -0.03028,-0.0351 -0.067,-0.0351 -0.03672,0 -0.108151,-0.0526 -0.158739,-0.11693 -0.05059,-0.0643 -0.110229,-0.11693 -0.132533,-0.11693 -0.0223,0 -0.09271,-0.0632 -0.156456,-0.14032 -0.06375,-0.0772 -0.132276,-0.14032 -0.152284,-0.14032 -0.02,0 -0.136001,-0.0976 -0.257759,-0.21689 -0.292656,-0.28672 -0.361217,-0.34416 -0.412396,-0.34548 -0.02357,-5.3e-4 -0.104764,-0.0848 -0.180443,-0.18709 -0.07568,-0.10229 -0.156255,-0.18598 -0.179062,-0.18598 -0.02281,0 -0.121079,-0.0789 -0.218382,-0.1754 -0.182875,-0.1813 -0.307025,-0.29131 -0.778549,-0.68989 -0.152165,-0.12862 -0.37492,-0.33383 -0.495012,-0.45602 -0.120092,-0.1222 -0.231595,-0.22217 -0.247788,-0.22217 -0.01619,0 -0.07821,-0.0526 -0.137808,-0.11693 -0.0596,-0.0643 -0.123817,-0.11693 -0.142703,-0.11693 -0.01889,0 -0.09368,-0.0579 -0.166203,-0.12863 -0.229312,-0.22367 -0.310126,-0.29232 -0.344107,-0.29232 -0.04245,0 -0.4021,-0.38624 -0.402873,-0.43265 -2.64e-4,-0.0193 -0.02514,-0.0351 -0.05512,-0.0351 -0.03,0 -0.08788,-0.031 -0.128624,-0.0689 -0.04075,-0.0379 -0.179319,-0.16402 -0.307943,-0.28025 -0.128622,-0.11622 -0.299271,-0.27463 -0.379217,-0.35202 -0.07994,-0.0774 -0.156181,-0.1407 -0.169418,-0.1407 -0.02596,0 -0.452758,-0.38201 -0.744638,-0.66651 -0.09897,-0.0965 -0.200276,-0.17539 -0.225126,-0.17539 -0.02484,0 -0.06771,-0.0421 -0.09524,-0.0935 -0.08731,-0.16315 -0.18709,-0.11473 -0.18709,0.0908 0,0.10138 0.02106,0.19734 0.04677,0.21323 0.0302,0.0187 0.04677,0.88045 0.04677,2.43216 0,1.55171 -0.01656,2.41348 -0.04677,2.43215 -0.02572,0.0159 -0.04677,0.0981 -0.04677,0.18269 0,0.0895 -0.04113,0.20078 -0.09836,0.26618 -0.0541,0.0618 -0.151884,0.17554 -0.217297,0.25271 l -0.11893,0.14032 h -7.414365 c -5.889916,0 -7.418369,-0.012 -7.433852,-0.0585 -0.01072,-0.0322 -0.04685,-0.0585 -0.08029,-0.0585 -0.03344,0 -0.07431,-0.0368 -0.09081,-0.0819 -0.05834,-0.15915 -0.173668,-0.3391 -0.217319,-0.3391 -0.02728,0 -0.04422,-1.04852 -0.04422,-2.73617 0,-1.63549 0.01733,-2.73617 0.04305,-2.73617 0.02368,0 0.05673,-0.0623 0.07344,-0.13836 0.03229,-0.14702 0.308245,-0.42291 0.423008,-0.42291 0.03769,0 0.06853,-0.021 0.06853,-0.0468 0,-0.031 2.447742,-0.0468 7.249683,-0.0468 7.218506,0 7.249687,-5.3e-4 7.249687,-0.0935 0,-0.0514 -0.01611,-0.0935 -0.03582,-0.0935 -0.03525,0 -0.380253,-0.29958 -0.794504,-0.68989 -0.116035,-0.10934 -0.226102,-0.19879 -0.244594,-0.19879 -0.01849,0 -0.08201,-0.0631 -0.141158,-0.14031 -0.05914,-0.0772 -0.130698,-0.14121 -0.159006,-0.1423 -0.02831,-0.001 -0.1031,-0.0642 -0.166206,-0.14032 -0.0631,-0.0761 -0.127482,-0.13833 -0.143063,-0.13833 -0.02935,0 -0.581147,-0.49969 -0.890953,-0.80682 -0.0973,-0.0965 -0.198876,-0.1754 -0.225713,-0.1754 -0.02684,0 -0.07132,-0.0421 -0.09886,-0.0935 -0.02754,-0.0515 -0.07994,-0.0936 -0.116457,-0.0936 -0.03889,0 -0.07916,-0.068 -0.0972,-0.16422 -0.01693,-0.0903 -0.04947,-0.17575 -0.07228,-0.18984 -0.02281,-0.0141 -0.04147,-0.13351 -0.04147,-0.26535 0,-0.24322 0.127143,-0.58223 0.259588,-0.69215 0.0373,-0.031 0.06791,-0.08 0.06803,-0.10902 1.43e-4,-0.029 0.06057,-0.11712 0.134326,-0.1958 0.07376,-0.0787 0.14813,-0.18724 0.165267,-0.24123 0.01714,-0.054 0.06193,-0.10998 0.09954,-0.12441 0.03761,-0.0144 0.06838,-0.0555 0.06838,-0.0913 0,-0.0358 0.07367,-0.14319 0.163703,-0.23865 0.09004,-0.0955 0.164372,-0.19839 0.165187,-0.22872 7.94e-4,-0.0303 0.07448,-0.12778 0.163703,-0.21658 0.08922,-0.0888 0.162219,-0.18551 0.162219,-0.21492 0,-0.0294 0.0421,-0.0916 0.09354,-0.13813 0.05145,-0.0466 0.09354,-0.10515 0.09354,-0.1302 0,-0.0251 0.07367,-0.12709 0.163703,-0.22674 0.09004,-0.0997 0.163703,-0.20102 0.163703,-0.22524 0,-0.0242 0.07357,-0.12413 0.163479,-0.22203 0.08991,-0.0979 0.163581,-0.20431 0.163703,-0.23647 1.4e-4,-0.0322 0.01635,-0.0585 0.03605,-0.0585 0.03554,0 0.306649,-0.37781 0.421566,-0.58747 0.03291,-0.06 0.147195,-0.18394 0.253973,-0.27534 0.190114,-0.16273 0.202457,-0.16615 0.594979,-0.16469 0.475462,0.002 0.445408,-0.0157 1.221293,0.71179 0.185182,0.17364 0.352065,0.31571 0.370853,0.31571 0.01879,0 0.08255,0.0631 0.141698,0.14032 0.05915,0.0772 0.130699,0.1412 0.159007,0.14229 0.02831,10e-4 0.1031,0.0642 0.166206,0.14032 0.0631,0.0761 0.136771,0.13985 0.163703,0.14171 0.02693,0.002 0.133154,0.10558 0.236053,0.23049 0.102899,0.1249 0.210449,0.22862 0.239003,0.23048 0.02855,0.002 0.09143,0.056 0.139724,0.12031 0.0483,0.0643 0.113647,0.11693 0.145222,0.11693 0.03158,0 0.07994,0.0421 0.107476,0.0935 0.02754,0.0514 0.06902,0.0935 0.09218,0.0935 0.02315,0 0.154697,0.1105 0.292296,0.24555 0.330864,0.32475 0.700873,0.64312 0.747448,0.64312 0.02056,0 0.03737,0.0269 0.03737,0.0598 0,0.0329 0.04398,0.0908 0.09774,0.12862 0.05375,0.0378 0.166349,0.13194 0.250211,0.20911 0.08386,0.0772 0.296257,0.2666 0.471996,0.42095 0.175736,0.15435 0.365482,0.32799 0.421658,0.38587 0.05617,0.0579 0.120769,0.10534 0.143542,0.10547 0.02278,1.4e-4 0.112784,0.0843 0.200017,0.18709 0.08723,0.10277 0.175064,0.18685 0.195183,0.18685 0.02011,0 0.09807,0.0579 0.173223,0.12863 0.503232,0.47368 0.824717,0.76005 0.85326,0.76005 0.01826,0 0.07269,0.0526 0.120986,0.11693 0.0483,0.0643 0.113644,0.11693 0.145222,0.11693 0.03158,0 0.07994,0.0421 0.107476,0.0935 0.02754,0.0514 0.08089,0.0935 0.118576,0.0935 0.03768,0 0.06851,0.0316 0.06851,0.0702 0,0.0386 0.01588,0.0702 0.03529,0.0702 0.03525,0 0.424037,0.33517 0.773133,0.66651 0.101637,0.0965 0.192305,0.17539 0.201486,0.17539 0.0092,0 0.145751,0.12629 0.30349,0.28063 0.157739,0.15435 0.31087,0.28153 0.340291,0.28262 0.02942,0.001 0.105122,0.0642 0.168225,0.14031 0.06311,0.0761 0.136774,0.13892 0.163703,0.13963 0.02693,7.9e-4 0.101587,0.0738 0.165896,0.16241 0.06431,0.0886 0.13588,0.16171 0.159039,0.16242 0.02315,7.9e-4 0.131932,0.0907 0.241718,0.20007 0.279276,0.27811 0.374282,0.36248 0.408181,0.36248 0.01614,0 0.109691,0.0789 0.207885,0.1754 0.0982,0.0965 0.316601,0.30168 0.485347,0.45603 0.433562,0.39657 0.509034,0.52073 0.509034,0.83742 0,0.14395 -0.02106,0.26172 -0.04677,0.26172 -0.02572,0 -0.04677,0.0411 -0.04677,0.0913 0,0.1156 -0.09598,0.32961 -0.147825,0.32961 -0.02159,0 -0.03926,0.0285 -0.03926,0.0633 0,0.0348 -0.05262,0.1201 -0.11693,0.1895 -0.06431,0.0694 -0.11693,0.14727 -0.11693,0.17307 0,0.0258 -0.06305,0.11416 -0.140099,0.19637 -0.07706,0.0822 -0.140296,0.17052 -0.140534,0.19624 -2.35e-4,0.0257 -0.06348,0.11404 -0.140533,0.19625 -0.07706,0.0822 -0.1401,0.16799 -0.1401,0.19063 0,0.0226 -0.05262,0.0906 -0.11693,0.151 -0.06431,0.0604 -0.117033,0.1325 -0.117154,0.16017 -1.41e-4,0.0277 -0.07379,0.13041 -0.163703,0.22831 -0.08991,0.0979 -0.163479,0.19901 -0.163479,0.2247 0,0.0257 -0.06304,0.11397 -0.140099,0.19618 -0.07706,0.0822 -0.1402,0.17212 -0.140317,0.19979 -1.4e-4,0.0277 -0.0542,0.10102 -0.120168,0.163 -0.06597,0.062 -0.152561,0.18141 -0.192416,0.2654 -0.03986,0.084 -0.09112,0.15271 -0.113911,0.15271 -0.02281,0 -0.04171,0.0263 -0.04203,0.0585 -2.64e-4,0.0322 -0.08451,0.14883 -0.187089,0.25928 -0.102579,0.11045 -0.186505,0.21978 -0.186505,0.24295 0,0.0232 -0.07357,0.12224 -0.163481,0.22014 -0.08991,0.0979 -0.163578,0.20431 -0.1637,0.23646 -1.88e-4,0.0465 1.467038,0.0585 7.18077,0.0585 6.339962,0 7.18415,0.008 7.207917,0.0702 0.01482,0.0386 0.05237,0.0701 0.08347,0.0701 0.07312,0 0.307189,0.26525 0.415579,0.47095 0.07929,0.15046 0.08367,0.33175 0.07016,2.90398 l -0.01442,2.74351 -0.173077,0.16806 c -0.09519,0.0924 -0.186147,0.16806 -0.20212,0.16806 -0.01598,0 -0.06062,0.0316 -0.09921,0.0702 -0.0618,0.0618 -0.943452,0.0697 -7.398354,0.0665 -4.030509,-0.002 -7.359769,-0.0156 -7.398356,-0.0302 z"
       style="fill:#222222;fill-opacity:1;stroke-width:0.0467722" />
    <path
       id="path1004"
       d="m -78.960598,124.99932 c -0.129413,-0.0327 -0.388572,-0.3332 -0.423175,-0.49075 -0.01572,-0.0716 -0.04797,-0.13019 -0.07165,-0.13019 -0.02574,0 -0.04306,-1.09154 -0.04306,-2.71278 0,-1.62124 0.01733,-2.71279 0.04306,-2.71279 0.02368,0 0.05692,-0.0631 0.07387,-0.14031 0.01696,-0.0772 0.06072,-0.14032 0.09726,-0.14032 0.03654,0 0.06644,-0.0201 0.06644,-0.0446 0,-0.0246 0.05788,-0.10349 0.128622,-0.1754 l 0.128625,-0.13075 7.31974,0.016 c 4.025858,0.009 7.330313,0.0315 7.343233,0.0505 0.01291,0.019 0.09189,0.0643 0.175498,0.10066 0.0836,0.0364 0.152008,0.0932 0.152008,0.12634 0,0.0331 0.02909,0.0714 0.06464,0.085 0.03555,0.0136 0.0779,0.10769 0.0941,0.209 0.01619,0.10131 0.05025,0.1842 0.07567,0.1842 0.0299,0 0.04622,0.92515 0.04622,2.61924 0,1.71499 -0.01614,2.61925 -0.04677,2.61925 -0.02572,0 -0.04677,0.0327 -0.04677,0.0726 0,0.10732 -0.201568,0.44113 -0.266618,0.44155 -0.03088,1.9e-4 -0.07675,0.0372 -0.101944,0.0822 -0.04329,0.0774 -0.447633,0.0822 -7.380632,0.0884 -4.034157,0.004 -7.376927,-0.004 -7.428375,-0.017 z"
       style="fill:#222222;fill-opacity:1;stroke-width:0.0467722" />
    <path
       id="path1006"
       d="m -86.436705,132.09579 c -0.04559,-0.0772 -0.10179,-0.14031 -0.124896,-0.14031 -0.0231,0 -0.05652,-0.0789 -0.07426,-0.1754 -0.01773,-0.0965 -0.05074,-0.18746 -0.07334,-0.2022 -0.05542,-0.0361 -0.0511,-5.33897 0.0044,-5.37325 0.02355,-0.0146 0.0562,-0.0799 0.07258,-0.14513 0.03966,-0.15801 0.287422,-0.41826 0.39819,-0.41826 0.04863,0 0.10142,-0.0211 0.117318,-0.0468 0.04001,-0.0647 14.412596,-0.0647 14.452601,0 0.0159,0.0257 0.07662,0.0468 0.134924,0.0468 0.123931,0 0.260093,0.13576 0.398031,0.39687 0.08767,0.16595 0.09847,0.26469 0.09847,0.90036 0,0.4448 0.01762,0.71397 0.04677,0.71397 0.02598,0 0.04677,0.12472 0.04677,0.28063 0,0.15591 -0.0208,0.28063 -0.04677,0.28063 -0.02572,0 -0.04677,0.0421 -0.04677,0.0936 0,0.0514 0.02106,0.0935 0.04677,0.0935 0.03014,0 0.04677,0.49891 0.04677,1.40317 0,0.90426 -0.01664,1.40316 -0.04677,1.40316 -0.02572,0 -0.04677,0.0874 -0.04677,0.19412 0,0.23394 -0.205557,0.67927 -0.332078,0.71942 -0.04888,0.0155 -0.08887,0.0478 -0.08887,0.0718 0,0.0268 -2.87342,0.0436 -7.450077,0.0436 h -7.450077 z"
       style="fill:#222222;fill-opacity:1;stroke-width:0.0467722" />
    <path
       id="path1008"
       d="m -70.389598,132.10068 c -0.07074,-0.0689 -0.128625,-0.14394 -0.128625,-0.16667 0,-0.0227 -0.03683,-0.082 -0.08185,-0.13173 -0.07549,-0.0834 -0.08297,-0.2909 -0.09627,-2.6697 -0.0079,-1.41861 -0.0016,-2.68453 0.01418,-2.81315 0.0222,-0.18164 0.06721,-0.27621 0.201509,-0.42351 0.347607,-0.38125 -0.38259,-0.34823 7.700008,-0.34823 6.733638,0 7.216328,0.005 7.324352,0.0802 0.0636,0.0441 0.193453,0.16515 0.288554,0.26894 0.134652,0.14696 0.179195,0.24047 0.201311,0.42258 0.01561,0.12862 0.02201,1.4213 0.01418,2.8726 -0.01111,2.05923 -0.02706,2.64302 -0.07269,2.65822 -0.06921,0.0231 -0.07955,0.19877 -0.01169,0.19877 0.02572,0 0.04677,0.0421 0.04677,0.0935 0,0.0932 -0.0295,0.0935 -7.635555,0.0885 l -7.635558,-0.005 z"
       style="fill:#222222;fill-opacity:1;stroke-width:0.0467722" />
    <rect
       y="95.143448"
       x="-98.04882"
       height="52.916668"
       width="52.916668"
       id="rect5363-6"
       style="opacity:1;fill:#222222;fill-opacity:1;fill-rule:nonzero;stroke:none;stroke-width:0.499999;stroke-linecap:butt;stroke-linejoin:round;stroke-miterlimit:4;stroke-dasharray:none;stroke-dashoffset:0;stroke-opacity:0.909449;paint-order:normal"
       rx="3.96875"
       ry="3.96875" />
    <rect
       style="opacity:1;fill:#9c27b0;fill-opacity:1;fill-rule:nonzero;stroke:none;stroke-width:0.499999;stroke-linecap:butt;stroke-linejoin:round;stroke-miterlimit:4;stroke-dasharray:none;stroke-dashoffset:0;stroke-opacity:0.909449;paint-order:normal"
       id="rect5365-6"
       width="47.625"
       height="47.625"
       x="-95.402977"
       y="97.789284"
       rx="2.6458333"
       ry="2.6458333" />
    <path
       style="opacity:1;fill:#222222;fill-opacity:1;fill-rule:nonzero;stroke:none;stroke-width:0.499999;stroke-linecap:butt;stroke-linejoin:round;stroke-miterlimit:4;stroke-dasharray:none;stroke-dashoffset:0;stroke-opacity:0.909449;paint-order:normal"
       d="m -96.593606,132.18512 v 8.33438 c 0,3.07816 2.47809,5.55625 5.55625,5.55625 h 38.89375 c 3.078162,0 5.55625,-2.47809 5.55625,-5.55625 v -8.33438 z"
       id="path5369-6"
       inkscape:connector-curvature="0" />
    <rect
       ry="2.6458333"
       rx="2.6458333"
       y="134.82028"
       x="-94.741524"
       height="8.2020836"
       width="46.302082"
       id="rect819-3"
       style="fill:#222222;fill-opacity:1;stroke-width:0.264583" />
    <text
       transform="translate(29.106764,-1.1552198)"
       id="text340-7-9-1-0-6"
       y="142.46338"
       x="-100.49781"
       style="font-style:normal;font-variant:normal;font-weight:bold;font-stretch:normal;font-size:8.11389px;line-height:1.25;font-family:Candara;-inkscape-font-specification:'Candara Bold';text-align:center;text-anchor:middle;white-space:pre;inline-size:43.4227;fill:#eeeeee;fill-opacity:1;stroke:none;stroke-width:0.264583"
       xml:space="preserve"><tspan
         x="-100.49781"
         y="142.46338"><tspan>STRUCTURE</tspan></tspan></text>
    <path
       id="path1000"
       d="m -94.921936,124.99345 c -0.14931,-0.043 -0.43231,-0.27856 -0.43231,-0.35981 0,-0.0375 -0.0158,-0.0683 -0.0351,-0.0685 -0.0193,-1.6e-4 -0.0719,-0.065 -0.11693,-0.14411 -0.0752,-0.13214 -0.0819,-0.35196 -0.0819,-2.70973 0,-1.66016 0.0165,-2.57612 0.0468,-2.59482 0.0257,-0.0159 0.0468,-0.0704 0.0468,-0.12116 0,-0.0507 0.0292,-0.10346 0.0649,-0.11716 0.0357,-0.0137 0.0773,-0.0867 0.0924,-0.16224 0.0151,-0.0755 0.05,-0.13732 0.0776,-0.13732 0.0276,0 0.0965,-0.0495 0.15318,-0.11001 l 0.103,-0.11 7.13276,-0.0329 c 3.92302,-0.0181 7.22564,-0.018 7.33916,2.6e-4 0.15782,0.0254 0.25966,0.0845 0.43264,0.25128 0.13107,0.12633 0.22624,0.25987 0.22624,0.31745 0,0.0547 0.0211,0.11239 0.0468,0.12828 0.0303,0.0187 0.0468,0.95602 0.0468,2.65889 0,2.43415 -0.006,2.64203 -0.0836,2.79187 -0.12882,0.24949 -0.24998,0.41915 -0.2993,0.41915 -0.0246,0 -0.0763,0.0316 -0.11489,0.0702 -0.0618,0.0618 -0.93219,0.0696 -7.30481,0.0655 -3.97906,-0.003 -7.28216,-0.0184 -7.34022,-0.0351 z"
       style="fill:#222222;fill-opacity:1;stroke-width:0.0467722" />
    <path
       id="path1002-8"
       d="m -62.894363,124.99936 c -0.109373,-0.0412 -0.317533,-0.29041 -0.420743,-0.50362 -0.0904,-0.18675 -0.0937,-0.28733 -0.0937,-2.81876 0,-1.69961 0.0165,-2.63529 0.0468,-2.65401 0.0257,-0.0159 0.0468,-0.0683 0.0468,-0.11634 0,-0.0481 0.0266,-0.11526 0.059,-0.14926 0.0541,-0.0566 0.17485,-0.29467 0.17485,-0.34463 0,-0.0117 -0.0404,-0.0212 -0.0897,-0.0212 -0.11006,0 -0.34784,-0.12649 -0.51249,-0.27262 -0.23687,-0.21023 -0.42627,-0.40591 -0.42651,-0.44065 -1.4e-4,-0.0193 -0.0303,-0.0351 -0.067,-0.0351 -0.0367,0 -0.10815,-0.0526 -0.15874,-0.11693 -0.0506,-0.0643 -0.11023,-0.11693 -0.13253,-0.11693 -0.0223,0 -0.0927,-0.0632 -0.15646,-0.14032 -0.0637,-0.0772 -0.13227,-0.14032 -0.15228,-0.14032 -0.02,0 -0.136,-0.0976 -0.25776,-0.21689 -0.29265,-0.28672 -0.36122,-0.34416 -0.41239,-0.34548 -0.0236,-5.3e-4 -0.10477,-0.0848 -0.18045,-0.18709 -0.0757,-0.10229 -0.15625,-0.18598 -0.17906,-0.18598 -0.0228,0 -0.12108,-0.0789 -0.21838,-0.1754 -0.18288,-0.1813 -0.30703,-0.29131 -0.77855,-0.68989 -0.15217,-0.12862 -0.37492,-0.33383 -0.49501,-0.45602 -0.12009,-0.1222 -0.2316,-0.22217 -0.24779,-0.22217 -0.0162,0 -0.0782,-0.0526 -0.13781,-0.11693 -0.0596,-0.0643 -0.12382,-0.11693 -0.1427,-0.11693 -0.0189,0 -0.0937,-0.0579 -0.1662,-0.12863 -0.22932,-0.22367 -0.31013,-0.29232 -0.34411,-0.29232 -0.0424,0 -0.4021,-0.38624 -0.40287,-0.43265 -2.7e-4,-0.0193 -0.0251,-0.0351 -0.0551,-0.0351 -0.03,0 -0.0879,-0.031 -0.12863,-0.0689 -0.0408,-0.0379 -0.17932,-0.16402 -0.30794,-0.28025 -0.12862,-0.11622 -0.29927,-0.27463 -0.37922,-0.35202 -0.0799,-0.0774 -0.15618,-0.1407 -0.16942,-0.1407 -0.026,0 -0.45275,-0.38201 -0.74463,-0.66651 -0.099,-0.0965 -0.20028,-0.17539 -0.22513,-0.17539 -0.0248,0 -0.0677,-0.0421 -0.0952,-0.0935 -0.0873,-0.16315 -0.18709,-0.11473 -0.18709,0.0908 0,0.10138 0.0211,0.19734 0.0468,0.21323 0.0302,0.0187 0.0468,0.88045 0.0468,2.43216 0,1.55171 -0.0166,2.41348 -0.0468,2.43215 -0.0257,0.0159 -0.0468,0.0981 -0.0468,0.18269 0,0.0895 -0.0411,0.20078 -0.0984,0.26618 -0.0541,0.0618 -0.15188,0.17554 -0.2173,0.25271 l -0.11893,0.14032 h -7.41436 c -5.88992,0 -7.41837,-0.012 -7.43385,-0.0585 -0.0107,-0.0322 -0.0469,-0.0585 -0.0803,-0.0585 -0.0334,0 -0.0743,-0.0368 -0.0908,-0.0819 -0.0583,-0.15915 -0.17367,-0.3391 -0.21732,-0.3391 -0.0273,0 -0.0442,-1.04852 -0.0442,-2.73617 0,-1.63549 0.0173,-2.73617 0.0431,-2.73617 0.0237,0 0.0567,-0.0623 0.0734,-0.13836 0.0323,-0.14702 0.30824,-0.42291 0.423,-0.42291 0.0377,0 0.0685,-0.021 0.0685,-0.0468 0,-0.031 2.44775,-0.0468 7.24969,-0.0468 7.2185,0 7.24968,-5.3e-4 7.24968,-0.0935 0,-0.0514 -0.0161,-0.0935 -0.0358,-0.0935 -0.0353,0 -0.38025,-0.29958 -0.7945,-0.68989 -0.11603,-0.10934 -0.2261,-0.19879 -0.24459,-0.19879 -0.0185,0 -0.082,-0.0631 -0.14116,-0.14031 -0.0591,-0.0772 -0.1307,-0.14121 -0.15901,-0.1423 -0.0283,-0.001 -0.1031,-0.0642 -0.1662,-0.14032 -0.0631,-0.0761 -0.12749,-0.13833 -0.14307,-0.13833 -0.0293,0 -0.58114,-0.49969 -0.89095,-0.80682 -0.0973,-0.0965 -0.19888,-0.1754 -0.22571,-0.1754 -0.0268,0 -0.0713,-0.0421 -0.0989,-0.0935 -0.0275,-0.0515 -0.0799,-0.0936 -0.11646,-0.0936 -0.0389,0 -0.0792,-0.068 -0.0972,-0.16422 -0.0169,-0.0903 -0.0495,-0.17575 -0.0723,-0.18984 -0.0228,-0.0141 -0.0415,-0.13351 -0.0415,-0.26535 0,-0.24322 0.12714,-0.58223 0.25959,-0.69215 0.0373,-0.031 0.0679,-0.08 0.068,-0.10902 1.4e-4,-0.029 0.0606,-0.11712 0.13432,-0.1958 0.0738,-0.0787 0.14813,-0.18724 0.16527,-0.24123 0.0171,-0.054 0.0619,-0.10998 0.0995,-0.12441 0.0376,-0.0144 0.0684,-0.0555 0.0684,-0.0913 0,-0.0358 0.0737,-0.14319 0.1637,-0.23865 0.09,-0.0955 0.16438,-0.19839 0.16519,-0.22872 8e-4,-0.0303 0.0745,-0.12778 0.1637,-0.21658 0.0892,-0.0888 0.16222,-0.18551 0.16222,-0.21492 0,-0.0294 0.0421,-0.0916 0.0935,-0.13813 0.0515,-0.0466 0.0935,-0.10515 0.0935,-0.1302 0,-0.0251 0.0737,-0.12709 0.16371,-0.22674 0.09,-0.0997 0.1637,-0.20102 0.1637,-0.22524 0,-0.0242 0.0736,-0.12413 0.16348,-0.22203 0.0899,-0.0979 0.16358,-0.20431 0.1637,-0.23647 1.4e-4,-0.0322 0.0164,-0.0585 0.0361,-0.0585 0.0355,0 0.30665,-0.37781 0.42157,-0.58747 0.0329,-0.06 0.14719,-0.18394 0.25397,-0.27534 0.19011,-0.16273 0.20246,-0.16615 0.59498,-0.16469 0.47546,0.002 0.44541,-0.0157 1.22129,0.71179 0.18518,0.17364 0.35207,0.31571 0.37086,0.31571 0.0188,0 0.0825,0.0631 0.14169,0.14032 0.0592,0.0772 0.1307,0.1412 0.15901,0.14229 0.0283,10e-4 0.1031,0.0642 0.16621,0.14032 0.0631,0.0761 0.13677,0.13985 0.1637,0.14171 0.0269,0.002 0.13315,0.10558 0.23605,0.23049 0.1029,0.1249 0.21045,0.22862 0.23901,0.23048 0.0285,0.002 0.0914,0.056 0.13972,0.12031 0.0483,0.0643 0.11365,0.11693 0.14522,0.11693 0.0316,0 0.0799,0.0421 0.10748,0.0935 0.0275,0.0514 0.069,0.0935 0.0922,0.0935 0.0232,0 0.15469,0.1105 0.29229,0.24555 0.33087,0.32475 0.70088,0.64312 0.74745,0.64312 0.0206,0 0.0374,0.0269 0.0374,0.0598 0,0.0329 0.044,0.0908 0.0977,0.12862 0.0538,0.0378 0.16635,0.13194 0.25021,0.20911 0.0839,0.0772 0.29626,0.2666 0.472,0.42095 0.17573,0.15435 0.36548,0.32799 0.42166,0.38587 0.0562,0.0579 0.12077,0.10534 0.14354,0.10547 0.0228,1.4e-4 0.11278,0.0843 0.20002,0.18709 0.0872,0.10277 0.17506,0.18685 0.19518,0.18685 0.0201,0 0.0981,0.0579 0.17322,0.12863 0.50323,0.47368 0.82472,0.76005 0.85326,0.76005 0.0183,0 0.0727,0.0526 0.12099,0.11693 0.0483,0.0643 0.11364,0.11693 0.14522,0.11693 0.0316,0 0.0799,0.0421 0.10748,0.0935 0.0275,0.0514 0.0809,0.0935 0.11857,0.0935 0.0377,0 0.0685,0.0316 0.0685,0.0702 0,0.0386 0.0159,0.0702 0.0353,0.0702 0.0352,0 0.42404,0.33517 0.773134,0.66651 0.101637,0.0965 0.192305,0.17539 0.201486,0.17539 0.0092,0 0.145751,0.12629 0.30349,0.28063 0.157739,0.15435 0.31087,0.28153 0.340291,0.28262 0.02942,0.001 0.105122,0.0642 0.168225,0.14031 0.06311,0.0761 0.136774,0.13892 0.163703,0.13963 0.02693,7.9e-4 0.101587,0.0738 0.165896,0.16241 0.06431,0.0886 0.13588,0.16171 0.159039,0.16242 0.02315,7.9e-4 0.131932,0.0907 0.241718,0.20007 0.279276,0.27811 0.374282,0.36248 0.408181,0.36248 0.01614,0 0.109691,0.0789 0.207885,0.1754 0.0982,0.0965 0.316601,0.30168 0.485347,0.45603 0.433562,0.39657 0.509034,0.52073 0.509034,0.83742 0,0.14395 -0.02106,0.26172 -0.04677,0.26172 -0.02572,0 -0.04677,0.0411 -0.04677,0.0913 0,0.1156 -0.09598,0.32961 -0.147825,0.32961 -0.02159,0 -0.03926,0.0285 -0.03926,0.0633 0,0.0348 -0.05262,0.1201 -0.11693,0.1895 -0.06431,0.0694 -0.11693,0.14727 -0.11693,0.17307 0,0.0258 -0.06305,0.11416 -0.140099,0.19637 -0.07706,0.0822 -0.140296,0.17052 -0.140534,0.19624 -2.35e-4,0.0257 -0.06348,0.11404 -0.140533,0.19625 -0.07706,0.0822 -0.1401,0.16799 -0.1401,0.19063 0,0.0226 -0.05262,0.0906 -0.11693,0.151 -0.06431,0.0604 -0.117033,0.1325 -0.117154,0.16017 -1.41e-4,0.0277 -0.07379,0.13041 -0.163703,0.22831 -0.08991,0.0979 -0.163479,0.19901 -0.163479,0.2247 0,0.0257 -0.06304,0.11397 -0.140099,0.19618 -0.07706,0.0822 -0.1402,0.17212 -0.140317,0.19979 -1.4e-4,0.0277 -0.0542,0.10102 -0.120168,0.163 -0.06597,0.062 -0.152561,0.18141 -0.192416,0.2654 -0.03986,0.084 -0.09112,0.15271 -0.113911,0.15271 -0.02281,0 -0.04171,0.0263 -0.04203,0.0585 -2.64e-4,0.0322 -0.08451,0.14883 -0.187089,0.25928 -0.102579,0.11045 -0.186505,0.21978 -0.186505,0.24295 0,0.0232 -0.07357,0.12224 -0.163481,0.22014 -0.08991,0.0979 -0.163578,0.20431 -0.1637,0.23646 -1.88e-4,0.0465 1.467038,0.0585 7.18077,0.0585 6.339962,0 7.18415,0.008 7.207917,0.0702 0.01482,0.0386 0.05237,0.0701 0.08347,0.0701 0.07312,0 0.307189,0.26525 0.415579,0.47095 0.07929,0.15046 0.08367,0.33175 0.07016,2.90398 l -0.01442,2.74351 -0.173077,0.16806 c -0.09519,0.0924 -0.186147,0.16806 -0.20212,0.16806 -0.01598,0 -0.06062,0.0316 -0.09921,0.0702 -0.0618,0.0618 -0.943452,0.0697 -7.398354,0.0665 -4.030509,-0.002 -7.359769,-0.0156 -7.398356,-0.0302 z"
       style="fill:#222222;fill-opacity:1;stroke-width:0.0467722" />
    <path
       id="path1004-9"
       d="m -78.960596,124.99932 c -0.12942,-0.0327 -0.38858,-0.3332 -0.42318,-0.49075 -0.0157,-0.0716 -0.048,-0.13019 -0.0717,-0.13019 -0.0257,0 -0.0431,-1.09154 -0.0431,-2.71278 0,-1.62124 0.0173,-2.71279 0.0431,-2.71279 0.0237,0 0.0569,-0.0631 0.0739,-0.14031 0.017,-0.0772 0.0607,-0.14032 0.0973,-0.14032 0.0365,0 0.0664,-0.0201 0.0664,-0.0446 0,-0.0246 0.0579,-0.10349 0.12862,-0.1754 l 0.12863,-0.13075 7.31974,0.016 c 4.02586,0.009 7.33031,0.0315 7.34323,0.0505 0.0129,0.019 0.0919,0.0643 0.1755,0.10066 0.0836,0.0364 0.15201,0.0932 0.15201,0.12634 0,0.0331 0.0291,0.0714 0.0646,0.085 0.0355,0.0136 0.0779,0.10769 0.0941,0.209 0.0162,0.10131 0.0502,0.1842 0.0757,0.1842 0.0299,0 0.0462,0.92515 0.0462,2.61924 0,1.71499 -0.0161,2.61925 -0.0468,2.61925 -0.0257,0 -0.0468,0.0327 -0.0468,0.0726 0,0.10732 -0.20157,0.44113 -0.26662,0.44155 -0.0309,1.9e-4 -0.0768,0.0372 -0.10195,0.0822 -0.0433,0.0774 -0.44763,0.0822 -7.38063,0.0884 -4.03415,0.004 -7.37692,-0.004 -7.42837,-0.017 z"
       style="fill:#222222;fill-opacity:1;stroke-width:0.0467722" />
    <path
       id="path1006-4"
       d="m -86.436706,132.09579 c -0.0456,-0.0772 -0.10179,-0.14031 -0.1249,-0.14031 -0.0231,0 -0.0565,-0.0789 -0.0743,-0.1754 -0.0177,-0.0965 -0.0507,-0.18746 -0.0733,-0.2022 -0.0554,-0.0361 -0.0511,-5.33897 0.004,-5.37325 0.0236,-0.0146 0.0562,-0.0799 0.0726,-0.14513 0.0397,-0.15801 0.28742,-0.41826 0.39819,-0.41826 0.0486,0 0.10142,-0.0211 0.11732,-0.0468 0.04,-0.0647 14.4126,-0.0647 14.4526,0 0.0159,0.0257 0.0766,0.0468 0.13493,0.0468 0.12393,0 0.26009,0.13576 0.39803,0.39687 0.0877,0.16595 0.0985,0.26469 0.0985,0.90036 0,0.4448 0.0176,0.71397 0.0468,0.71397 0.026,0 0.0468,0.12472 0.0468,0.28063 0,0.15591 -0.0208,0.28063 -0.0468,0.28063 -0.0257,0 -0.0468,0.0421 -0.0468,0.0936 0,0.0514 0.0211,0.0935 0.0468,0.0935 0.0301,0 0.0468,0.49891 0.0468,1.40317 0,0.90426 -0.0166,1.40316 -0.0468,1.40316 -0.0257,0 -0.0468,0.0874 -0.0468,0.19412 0,0.23394 -0.20556,0.67927 -0.33208,0.71942 -0.0489,0.0155 -0.0889,0.0478 -0.0889,0.0718 0,0.0268 -2.87342,0.0436 -7.45008,0.0436 h -7.45008 z"
       style="fill:#222222;fill-opacity:1;stroke-width:0.0467722" />
    <path
       id="path1008-2"
       d="m -70.389596,132.10068 c -0.0707,-0.0689 -0.12863,-0.14394 -0.12863,-0.16667 0,-0.0227 -0.0368,-0.082 -0.0819,-0.13173 -0.0755,-0.0834 -0.083,-0.2909 -0.0963,-2.6697 -0.008,-1.41861 -0.002,-2.68453 0.0142,-2.81315 0.0222,-0.18164 0.0672,-0.27621 0.20151,-0.42351 0.34761,-0.38125 -0.38259,-0.34823 7.700007,-0.34823 6.733638,0 7.216328,0.005 7.324352,0.0802 0.0636,0.0441 0.193453,0.16515 0.288554,0.26894 0.134652,0.14696 0.179195,0.24047 0.201311,0.42258 0.01561,0.12862 0.02201,1.4213 0.01418,2.8726 -0.01111,2.05923 -0.02706,2.64302 -0.07269,2.65822 -0.06921,0.0231 -0.07955,0.19877 -0.01169,0.19877 0.02572,0 0.04677,0.0421 0.04677,0.0935 0,0.0932 -0.0295,0.0935 -7.635555,0.0885 l -7.635559,-0.005 z"
       style="fill:#222222;fill-opacity:1;stroke-width:0.0467722" />
  </g>
</svg>
