<?xml version="1.0" encoding="UTF-8" standalone="no"?>
<svg
   xmlns:dc="http://purl.org/dc/elements/1.1/"
   xmlns:cc="http://creativecommons.org/ns#"
   xmlns:rdf="http://www.w3.org/1999/02/22-rdf-syntax-ns#"
   xmlns:svg="http://www.w3.org/2000/svg"
   xmlns="http://www.w3.org/2000/svg"
   xmlns:sodipodi="http://sodipodi.sourceforge.net/DTD/sodipodi-0.dtd"
   xmlns:inkscape="http://www.inkscape.org/namespaces/inkscape"
   sodipodi:docname="wealth.svg"
   inkscape:version="1.0 (4035a4fb49, 2020-05-01)"
   id="svg8"
   version="1.1"
   viewBox="0 0 52.916668 52.916666"
   height="200"
   width="200">
  <defs
     id="defs2">
    <inkscape:path-effect
       bendpath4="m -199.08406,108.42369 v 6.75242"
       bendpath3="m -199.08406,115.17611 h 7.0057"
       bendpath2="m -192.07836,108.42369 v 6.75242"
       bendpath1="m -199.08406,108.42369 h 7.0057"
       xx="true"
       yy="true"
       is_visible="true"
       id="path-effect4658"
       effect="envelope" />
    <inkscape:path-effect
       bendpath-nodetypes="cc"
       vertical="false"
       scale_y_rel="false"
       prop_scale="1"
       bendpath="m -192.00142,114.60623 c 2.12577,-0.53066 4.48261,0.85111 7.0057,0"
       is_visible="true"
       id="path-effect4656"
       effect="bend_path" />
    <inkscape:path-effect
       visualbounds="false"
       linkedpath=""
       is_visible="true"
       id="path-effect4654"
       effect="bounding_box" />
  </defs>
  <sodipodi:namedview
     inkscape:document-rotation="0"
     inkscape:snap-page="true"
     units="px"
     inkscape:object-nodes="true"
     showguides="false"
     inkscape:window-maximized="1"
     inkscape:window-y="-8"
     inkscape:window-x="-8"
     inkscape:window-height="1027"
     inkscape:window-width="1920"
     fit-margin-bottom="0"
     fit-margin-right="0"
     fit-margin-left="0"
     fit-margin-top="0"
     showgrid="false"
     inkscape:current-layer="layer1"
     inkscape:document-units="mm"
     inkscape:cy="64.528103"
     inkscape:cx="255.81356"
     inkscape:zoom="2.8284271"
     inkscape:pageshadow="2"
     inkscape:pageopacity="0.0"
     borderopacity="1.0"
     bordercolor="#666666"
     pagecolor="#ffffff"
     id="base" />
  <metadata
     id="metadata5">
    <rdf:RDF>
      <cc:Work
         rdf:about="">
        <dc:format>image/svg+xml</dc:format>
        <dc:type
           rdf:resource="http://purl.org/dc/dcmitype/StillImage" />
        <dc:title />
      </cc:Work>
    </rdf:RDF>
  </metadata>
  <g
     transform="translate(249.80447,-91.409467)"
     id="layer1"
     inkscape:groupmode="layer"
     inkscape:label="Layer 1">
    <g
       transform="matrix(2,0,0,2,-249.80447,91.409467)"
       id="g5334"
       style="stroke-width:0.5">
      <rect
         y="-1.110223e-16"
         x="0"
         height="26.458334"
         width="26.458334"
         id="rect5322"
         style="opacity:1;fill:#222222;fill-opacity:1;fill-rule:nonzero;stroke:none;stroke-width:0.25;stroke-linecap:butt;stroke-linejoin:round;stroke-miterlimit:4;stroke-dasharray:none;stroke-dashoffset:0;stroke-opacity:0.90944878;paint-order:normal"
         rx="1.984375"
         ry="1.984375" />
      <rect
         style="opacity:1;fill:#00897b;fill-opacity:1;fill-rule:nonzero;stroke:none;stroke-width:0.25;stroke-linecap:butt;stroke-linejoin:round;stroke-miterlimit:4;stroke-dasharray:none;stroke-dashoffset:0;stroke-opacity:0.90944878;paint-order:normal"
         id="rect5324"
         width="23.8125"
         height="23.8125"
         x="1.322917"
         y="1.322917"
         rx="1.3229166"
         ry="1.3229166" />
      <path
         style="opacity:1;fill:#222222;fill-opacity:1;fill-rule:nonzero;stroke:none;stroke-width:0.24999999;stroke-linecap:butt;stroke-linejoin:round;stroke-miterlimit:4;stroke-dasharray:none;stroke-dashoffset:0;stroke-opacity:0.90944878;paint-order:normal"
         d="m 0.72760467,18.520836 v 4.167188 c 0,1.539081 1.23904383,2.778124 2.77812503,2.778124 H 22.952604 c 1.539081,0 2.778125,-1.239043 2.778125,-2.778124 v -4.167188 z"
         id="path5326"
         inkscape:connector-curvature="0" />
      <path
         inkscape:connector-curvature="0"
         id="path5347"
         d="M 9.402202,18.520836 9.3842353,17.714385 8.7707532,17.612582 C 8.1138401,17.503572 7.2415254,17.250004 6.7688637,17.030669 5.9935039,16.670865 5.1956549,15.936571 4.9192966,15.328429 4.7733514,15.00727 4.7427698,14.852188 4.7438705,14.438837 c 0.00158,-0.597901 0.1498429,-0.938029 0.5540116,-1.271053 0.4177441,-0.344212 0.8957956,-0.507124 1.50327,-0.512292 0.5940108,-0.005 0.967738,0.115408 1.3599039,0.438346 1.2780673,1.052439 0.5843599,2.795862 -1.181084,2.968295 l -0.413681,0.04041 0.180008,0.17136 c 0.3424198,0.325973 1.1140979,0.626783 2.0760653,0.809279 0.6640289,0.125971 0.5941596,0.42663 0.5941596,-2.556758 V 11.904742 L 9.0774941,11.763171 C 8.8910279,11.685314 8.4861275,11.515931 8.1777156,11.386766 6.7313225,10.781013 5.720306,9.8937709 5.3432851,8.8993427 5.0479427,8.1203492 5.1364793,6.8520664 5.5433302,6.0336994 6.1097441,4.8943785 7.4248515,4.0262524 9.0452057,3.7220492 l 0.3713182,-0.06971 V 2.8908535 2.1293682 h 0.2583083 0.2583083 v 0.7362127 0.736212 h 0.6457715 0.645771 V 2.8655809 2.1293682 h 0.290596 0.290597 v 0.7656611 c 0,0.4211134 0.0218,0.7658609 0.04843,0.7661056 0.214223,0.00197 0.952992,0.1475188 1.352563,0.266479 1.647274,0.4904269 2.62301,1.3571426 2.715888,2.4124377 0.04107,0.4666781 -0.08942,0.8239198 -0.424568,1.1622535 C 15.118297,7.8858179 14.836133,7.9887054 14.16294,7.989196 13.631335,7.989607 13.551591,7.974022 13.228292,7.8067721 12.800408,7.5854242 12.491929,7.2031327 12.383007,6.7592262 c -0.06871,-0.2800274 -0.06207,-0.3634799 0.0575,-0.7225142 0.142449,-0.4277199 0.280509,-0.5849832 0.765472,-0.8719213 0.202322,-0.1197082 0.36002,-0.1621559 0.629103,-0.1693363 0.197502,-0.00527 0.359334,-0.029129 0.359623,-0.053016 0.0019,-0.1545445 -1.026083,-0.5681251 -1.71077,-0.6883032 -0.213104,-0.037405 -0.45317,-0.080796 -0.533479,-0.096425 l -0.146016,-0.028419 0.01686,2.4195036 0.01686,2.4195043 0.633602,0.2272833 c 1.370901,0.4917626 2.561358,1.1150746 3.199509,1.6752286 0.884419,0.776326 1.16184,1.294261 1.21711,2.27229 0.06066,1.073182 -0.157017,1.861345 -0.735324,2.66262 -0.521865,0.72307 -1.273547,1.201124 -2.432831,1.547225 -0.385558,0.115114 -0.974017,0.240735 -1.307686,0.279172 l -0.606669,0.06989 v 0.81264 0.812643 h -0.290592 -0.290596 v -0.79511 -0.79511 H 10.578912 9.9331405 v 0.79511 0.795108 H 9.6766546 9.4201685 Z m 1.580316,-1.313036 0.242165,-8.12e-4 V 14.857297 12.5076 l -0.58164,-0.212321 c -0.319901,-0.116778 -0.610499,-0.212322 -0.6457706,-0.212322 -0.041467,0 -0.064131,0.903997 -0.064131,2.558633 v 2.558632 l 0.2744526,0.02366 c 0.150949,0.01296 0.332573,0.01491 0.403607,0.0043 0.07104,-0.01075 0.238128,-0.01984 0.371318,-0.02027 z m 1.531619,-0.339787 c 0.485697,-0.208834 1.050883,-0.710139 1.231991,-1.092741 0.200732,-0.424062 0.203264,-1.131137 0.0055,-1.538866 -0.274099,-0.565145 -0.726598,-0.944109 -1.62073,-1.357346 l -0.325014,-0.15022 v 2.186566 2.186566 l 0.1755,-0.04017 c 0.09652,-0.0221 0.336268,-0.109294 0.532761,-0.193783 z M 11.224683,6.4288476 V 4.072969 l -0.403608,6.588e-4 c -0.221983,3.564e-4 -0.512938,0.017132 -0.646566,0.037273 l -0.2429617,0.036624 0.01694,2.1229688 0.01694,2.122969 0.1614437,0.042987 c 0.08879,0.023644 0.36486,0.1106938 0.613482,0.1934343 0.248622,0.082748 0.459305,0.1514358 0.468184,0.1526467 0.0089,0.00122 0.01615,-1.0579438 0.01615,-2.3536777 z M 9.4165239,6.2227086 c 0,-2.1780523 0.040029,-2.0522223 -0.5539916,-1.7414769 C 8.3787625,4.7343033 7.9129084,5.2270085 7.7725255,5.6340645 7.5337467,6.3264327 7.7293625,6.9430095 8.3637291,7.4975217 8.6004502,7.7044444 9.2685506,8.1277474 9.368091,8.1338773 9.394729,8.1354973 9.416524,7.2754917 9.4165239,6.2227086 Z"
         style="fill:#222222;fill-opacity:1;stroke-width:0.5" />
      <g
         id="text4627-3-2-3"
         style="font-style:normal;font-variant:normal;font-weight:500;font-stretch:normal;font-size:4.23333311px;line-height:2.11666656px;font-family:Montserrat;-inkscape-font-specification:'Montserrat Medium';text-align:center;letter-spacing:0px;text-anchor:middle;opacity:1;fill:#eeeeee;fill-opacity:1;fill-rule:nonzero;stroke:none;stroke-width:2.11666656;stroke-linecap:butt;stroke-linejoin:round;stroke-miterlimit:4;stroke-dasharray:none;stroke-dashoffset:0;stroke-opacity:1;paint-order:stroke fill markers"
         aria-label="MARKETS">
        <path
           inkscape:connector-curvature="0"
           id="path5735"
           style="font-style:normal;font-variant:normal;font-weight:500;font-stretch:normal;font-size:4.23333311px;font-family:Montserrat;-inkscape-font-specification:'Montserrat Medium';text-align:center;letter-spacing:0px;text-anchor:middle;fill:#eeeeee;fill-opacity:1;stroke-width:2.11666656"
           d="m 2.8433125,20.509708 h 0.6476999 l 0.9821333,1.909234 0.9736666,-1.909234 h 0.6477 v 2.963334 h -0.5207 V 21.347908 L 4.6509457,23.168242 H 4.286879 L 3.3597791,21.347908 v 2.125134 H 2.8433125 Z" />
        <path
           inkscape:connector-curvature="0"
           id="path5737"
           style="font-style:normal;font-variant:normal;font-weight:500;font-stretch:normal;font-size:4.23333311px;font-family:Montserrat;-inkscape-font-specification:'Montserrat Medium';text-align:center;letter-spacing:0px;text-anchor:middle;fill:#eeeeee;fill-opacity:1;stroke-width:2.11666656"
           d="M 9.0131971,23.473042 8.7507305,22.846508 h -1.4478 L 7.0404639,23.473042 H 6.4520306 l 1.2996333,-2.963334 h 0.5884333 l 1.2826999,2.963334 z M 7.5061305,22.359675 h 1.0414 l -0.5164667,-1.2446 z" />
        <path
           inkscape:connector-curvature="0"
           id="path5739"
           style="font-style:normal;font-variant:normal;font-weight:500;font-stretch:normal;font-size:4.23333311px;font-family:Montserrat;-inkscape-font-specification:'Montserrat Medium';text-align:center;letter-spacing:0px;text-anchor:middle;fill:#eeeeee;fill-opacity:1;stroke-width:2.11666656"
           d="m 11.832994,23.473042 -0.512233,-0.8763 q -0.03387,0.0042 -0.105833,0.0042 h -0.668867 v 0.872067 H 9.9787943 v -2.963334 h 1.2361337 q 0.575733,0 0.889,0.2667 0.313266,0.2667 0.313266,0.753534 0,0.347133 -0.1524,0.592666 -0.148166,0.245534 -0.436033,0.3683 l 0.651933,0.982134 z m -1.286933,-1.3716 h 0.668867 q 0.321733,0 0.491066,-0.1397 0.169334,-0.1397 0.169334,-0.414867 0,-0.270933 -0.169334,-0.4064 -0.169333,-0.135467 -0.491066,-0.135467 h -0.668867 z" />
        <path
           inkscape:connector-curvature="0"
           id="path5741"
           style="font-style:normal;font-variant:normal;font-weight:500;font-stretch:normal;font-size:4.23333311px;font-family:Montserrat;-inkscape-font-specification:'Montserrat Medium';text-align:center;letter-spacing:0px;text-anchor:middle;fill:#eeeeee;fill-opacity:1;stroke-width:2.11666656"
           d="m 15.683872,23.473042 h -0.681567 l -0.931333,-1.27 -0.465667,0.512233 v 0.757767 h -0.567267 v -2.963334 h 0.567267 v 1.477434 l 1.337733,-1.477434 h 0.668867 l -1.138767,1.253067 z" />
        <path
           inkscape:connector-curvature="0"
           id="path5743"
           style="font-style:normal;font-variant:normal;font-weight:500;font-stretch:normal;font-size:4.23333311px;font-family:Montserrat;-inkscape-font-specification:'Montserrat Medium';text-align:center;letter-spacing:0px;text-anchor:middle;fill:#eeeeee;fill-opacity:1;stroke-width:2.11666656"
           d="m 16.11382,20.509708 h 2.1717 v 0.4953 h -1.604433 v 0.732367 h 1.439333 v 0.4953 h -1.439333 v 0.745067 h 1.655233 v 0.4953 h -2.2225 z" />
        <path
           inkscape:connector-curvature="0"
           id="path5745"
           style="font-style:normal;font-variant:normal;font-weight:500;font-stretch:normal;font-size:4.23333311px;font-family:Montserrat;-inkscape-font-specification:'Montserrat Medium';text-align:center;letter-spacing:0px;text-anchor:middle;fill:#eeeeee;fill-opacity:1;stroke-width:2.11666656"
           d="m 18.578281,20.509708 h 2.417233 v 0.503767 h -0.922867 v 2.459567 h -0.5715 v -2.459567 h -0.922866 z" />
        <path
           inkscape:connector-curvature="0"
           id="path5747"
           style="font-style:normal;font-variant:normal;font-weight:500;font-stretch:normal;font-size:4.23333311px;font-family:Montserrat;-inkscape-font-specification:'Montserrat Medium';text-align:center;letter-spacing:0px;text-anchor:middle;fill:#eeeeee;fill-opacity:1;stroke-width:2.11666656"
           d="m 23.259885,21.271708 q -0.2286,-0.1397 -0.4699,-0.2159 -0.237067,-0.0762 -0.4191,-0.0762 -0.2032,0 -0.321734,0.0762 -0.118533,0.0762 -0.118533,0.211667 0,0.122767 0.08043,0.207433 0.08467,0.08043 0.207434,0.135467 0.127,0.0508 0.3429,0.1143 0.300566,0.0889 0.491066,0.1778 0.194734,0.0889 0.3302,0.262467 0.135467,0.173566 0.135467,0.4572 0,0.270933 -0.148167,0.474133 -0.143933,0.198967 -0.402166,0.3048 -0.254,0.105833 -0.5842,0.105833 -0.347134,0 -0.677334,-0.127 -0.3302,-0.131233 -0.575733,-0.347133 l 0.237067,-0.4826 q 0.224366,0.207433 0.503766,0.325967 0.2794,0.118533 0.5207,0.118533 0.237067,0 0.372534,-0.0889 0.135466,-0.09313 0.135466,-0.249767 0,-0.127 -0.08467,-0.207433 -0.08043,-0.08467 -0.207434,-0.135467 -0.127,-0.0508 -0.347133,-0.1143 -0.300567,-0.0889 -0.491067,-0.173566 -0.1905,-0.08467 -0.325966,-0.254 -0.135467,-0.173567 -0.135467,-0.452967 0,-0.258233 0.135467,-0.448733 0.1397,-0.194734 0.389466,-0.300567 0.254,-0.105833 0.5842,-0.105833 0.287867,0 0.567267,0.08467 0.283633,0.08467 0.503766,0.2286 z" />
      </g>
    </g>
    <rect
       ry="3.96875"
       rx="3.96875"
       style="opacity:1;fill:#222222;fill-opacity:1;fill-rule:nonzero;stroke:none;stroke-width:0.499999;stroke-linecap:butt;stroke-linejoin:round;stroke-miterlimit:4;stroke-dasharray:none;stroke-dashoffset:0;stroke-opacity:0.909449;paint-order:normal"
       id="rect5322-1"
       width="52.916668"
       height="52.916668"
       x="-249.80447"
       y="91.40947" />
    <rect
       ry="2.6458333"
       rx="2.6458333"
       y="94.055298"
       x="-247.15863"
       height="47.625"
       width="47.625"
       id="rect5324-7"
       style="opacity:1;fill:#00897b;fill-opacity:1;fill-rule:nonzero;stroke:none;stroke-width:0.499999;stroke-linecap:butt;stroke-linejoin:round;stroke-miterlimit:4;stroke-dasharray:none;stroke-dashoffset:0;stroke-opacity:0.909449;paint-order:normal" />
    <path
       inkscape:connector-curvature="0"
       id="path5326-3"
       d="m -248.34926,128.45114 v 8.33437 c 0,3.07817 2.47809,5.55625 5.55625,5.55625 h 38.89375 c 3.07816,0 5.55625,-2.47808 5.55625,-5.55625 v -8.33437 z"
       style="opacity:1;fill:#222222;fill-opacity:1;fill-rule:nonzero;stroke:none;stroke-width:0.499999;stroke-linecap:butt;stroke-linejoin:round;stroke-miterlimit:4;stroke-dasharray:none;stroke-dashoffset:0;stroke-opacity:0.909449;paint-order:normal" />
    <rect
       style="fill:#00897b;fill-opacity:1;stroke-width:0.264583"
       id="rect611"
       width="38.166088"
       height="33.301785"
       x="-245.60138"
       y="95.164291"
       rx="2.6458333"
       ry="2.6458333" />
    <path
       style="fill:#222222;fill-opacity:1;stroke-width:0.0628018"
       d="m -226.05191,129.47367 c -0.34325,-0.0849 -0.59937,-0.20431 -0.66834,-0.31157 -0.15876,-0.24688 -0.0775,-1.54357 0.16639,-2.65624 0.0791,-0.36094 0.0837,-0.50899 0.0249,-0.8109 -0.0499,-0.25619 -0.056,-0.64266 -0.0198,-1.2616 0.0716,-1.22395 0.0672,-1.59234 -0.0239,-1.99616 -0.0446,-0.19773 -0.0772,-0.75188 -0.0758,-1.28855 0.002,-0.74928 -0.0221,-1.02629 -0.11791,-1.35621 -0.0775,-0.26688 -0.13578,-0.7293 -0.16357,-1.29774 -0.0237,-0.48573 -0.0714,-0.93768 -0.10575,-1.00437 -0.10463,-0.20273 -0.28212,-1.01249 -0.35714,-1.62947 -0.039,-0.32078 -0.0939,-0.64002 -0.12196,-0.70941 -0.0281,-0.0694 -0.0803,-0.19713 -0.11612,-0.28386 -0.0815,-0.19748 -0.16979,-0.56993 -0.30271,-1.27737 -0.057,-0.30358 -0.12504,-0.55195 -0.1511,-0.55195 -0.0402,0 -0.26348,-0.6714 -0.50354,-1.51393 -0.0346,-0.12142 -0.13032,-0.36271 -0.21272,-0.53618 -0.22713,-0.4782 -0.32642,-0.73025 -0.40438,-1.02645 -0.039,-0.14822 -0.2174,-0.56052 -0.3964,-0.91621 -0.40034,-0.79547 -0.48179,-0.98549 -0.48179,-1.12403 0,-0.0596 -0.0221,-0.1178 -0.0492,-0.12935 -0.0979,-0.0419 -0.35604,-0.46543 -0.64947,-1.06558 -0.41644,-0.85171 -0.49083,-0.85925 -0.58629,-0.0594 -0.0709,0.59406 -0.34785,1.27416 -0.54631,1.34147 -0.0417,0.0141 -0.10959,-0.0548 -0.15092,-0.15323 -0.0951,-0.22659 -0.19331,-0.22882 -0.24047,-0.006 -0.1037,0.49102 -0.36323,1.52902 -0.43768,1.75047 -0.0762,0.22667 -0.0852,0.23436 -0.0878,0.0756 -0.003,-0.19457 -0.36997,-1.17956 -0.43912,-1.17956 -0.0238,0 -0.0778,0.4045 -0.12001,0.89889 -0.10242,1.20033 -0.21532,1.82989 -0.47525,2.65014 -0.2982,0.94101 -0.31363,0.9607 -0.40202,0.51342 -0.0405,-0.20475 -0.0894,-0.45033 -0.10873,-0.54574 -0.0194,-0.0954 -0.0544,-0.17347 -0.078,-0.17347 -0.0236,0 -0.0784,-0.0993 -0.122,-0.22078 -0.0435,-0.12143 -0.0993,-0.22078 -0.12392,-0.22078 -0.0246,0 -0.0333,0.47546 -0.0192,1.05659 0.0325,1.33956 -0.0486,2.17604 -0.36222,3.73749 -0.13532,0.67373 -0.12891,0.65753 -0.22212,0.5618 -0.0476,-0.0488 -0.238,-0.44353 -0.42333,-0.8772 -0.38776,-0.90739 -0.5933,-1.73188 -0.83289,-3.34108 -0.14466,-0.97154 -0.14517,-3.20863 -9e-4,-3.9674 0.0551,-0.29006 0.10027,-0.6533 0.10027,-0.80721 v -0.27984 l -0.14596,0.11108 c -0.0802,0.0611 -0.21393,0.20323 -0.29699,0.31587 -0.0831,0.11263 -0.2313,0.26568 -0.3294,0.34011 l -0.17837,0.1353 0.044,-0.20244 c 0.0463,-0.21285 -0.0851,-1.19867 -0.15973,-1.19867 -0.0524,0 -0.12159,0.32586 -0.12159,0.57252 0,0.38076 -0.28642,1.23013 -0.46533,1.37993 -0.0536,0.0448 -0.0974,0.12185 -0.0974,0.17112 0,0.0492 -0.0291,0.12384 -0.0648,0.16574 -0.0356,0.0419 -0.13061,0.16922 -0.21113,0.28291 l -0.14639,0.20673 -0.11083,-0.47482 c -0.0703,-0.30148 -0.14167,-0.47481 -0.19528,-0.47481 -0.0464,0 -0.0844,0.0377 -0.0844,0.0836 0,0.10112 -0.44507,0.93915 -0.77632,1.46178 -0.44211,0.69752 -1.16727,1.67163 -1.24443,1.67163 -0.0361,0 -0.0853,-0.30453 -0.17285,-1.07237 -0.072,-0.63137 -0.0364,-2.08678 0.0622,-2.54108 0.0318,-0.14629 0.094,-0.4363 0.13829,-0.64446 0.0443,-0.20817 0.11678,-0.44945 0.16108,-0.53618 0.0443,-0.0867 0.0807,-0.2057 0.0809,-0.26437 2.1e-4,-0.0587 0.0285,-0.12421 0.0629,-0.14566 0.0344,-0.0214 0.0626,-0.0826 0.0626,-0.13593 0,-0.0533 0.0987,-0.30003 0.21945,-0.54823 0.22738,-0.46759 0.25965,-0.52464 0.54647,-0.96624 0.0946,-0.1456 0.17195,-0.27768 0.17195,-0.29352 0,-0.11397 1.54244,-1.68318 1.65447,-1.68318 0.0165,0 0.24132,-0.12598 0.49949,-0.27998 0.44774,-0.26705 0.89402,-0.45037 1.44121,-0.592 0.38379,-0.0993 1.35432,-0.26435 1.55196,-0.26387 0.1435,2.5e-4 0.161,-0.0143 0.0938,-0.0784 -0.16494,-0.15741 -0.56036,-0.24322 -1.29175,-0.28032 l -0.74639,-0.0379 0.0518,-0.1822 c 0.0719,-0.25316 0.28933,-0.59424 0.47013,-0.73773 0.0836,-0.0663 0.15185,-0.1519 0.15185,-0.19027 0,-0.18814 -1.41584,0.0283 -1.81964,0.27824 -0.0551,0.0341 -0.16766,0.16353 -0.25011,0.28761 -0.0824,0.12408 -0.28908,0.43632 -0.4592,0.69387 -0.17012,0.25757 -0.34845,0.50831 -0.3963,0.55721 -0.0478,0.0489 -0.15164,0.19227 -0.23067,0.31857 -0.16223,0.25926 -0.64965,0.78903 -0.68923,0.74911 -0.0143,-0.0144 0.015,-0.22372 0.0651,-0.46519 0.0501,-0.24147 0.091,-0.51712 0.091,-0.61254 0,-0.0954 0.0282,-0.17349 0.0625,-0.17349 0.0344,0 0.0625,-0.0608 0.0625,-0.13513 0,-0.30717 0.44703,-1.59634 0.64215,-1.85189 0.0265,-0.0347 0.15679,-0.236211 0.28954,-0.447831 0.21372,-0.34064 1.00431,-1.22379 1.09555,-1.22379 0.0191,0 0.20118,-0.12774 0.40465,-0.28386 0.20349,-0.15613 0.40919,-0.28387 0.45714,-0.28387 0.0479,0 0.11388,-0.0235 0.14656,-0.0521 0.0327,-0.0286 0.18601,-0.0887 0.34076,-0.13347 0.15474,-0.0447 0.35676,-0.10908 0.44893,-0.14295 0.16605,-0.061 0.70707,-0.038 1.09856,0.0466 0.23923,0.0518 0.25501,-9.5e-4 0.0626,-0.20871 l -0.14068,-0.15186 0.31262,0.042 c 0.38665,0.0519 0.57247,0.11728 1.11339,0.39173 0.47965,0.24336 0.62319,0.35159 1.0919,0.82335 0.18124,0.18242 0.35544,0.33168 0.3871,0.33168 0.0317,0 0.0832,-0.12064 0.11451,-0.26809 l 0.057,-0.26809 0.0801,0.18924 c 0.044,0.10408 0.11774,0.399 0.16385,0.65536 0.0461,0.25637 0.10196,0.48345 0.12413,0.50464 0.0221,0.0212 0.15658,-0.10244 0.2987,-0.27472 0.52817,-0.64032 1.42191,-1.48454 1.57161,-1.48454 0.0219,0 0.15741,-0.0799 0.30115,-0.17769 0.54457,-0.37021 1.79958,-0.768508 2.42158,-0.768508 0.12209,0 0.25154,-0.0299 0.28766,-0.0663 0.0426,-0.043 0.40323,-0.0566 1.02853,-0.0387 1.07155,0.0306 1.75765,0.12401 2.42185,0.329628 0.20919,0.0648 0.048,0.15166 -0.2836,0.15288 -0.48172,0.002 -1.40177,0.31806 -1.58917,0.5463 -0.0792,0.0964 -0.0612,0.10239 0.21448,0.0711 0.36996,-0.042 0.36792,-0.0335 -0.15874,0.65838 -0.47182,0.61984 -1.036,1.1759 -1.4383,1.417611 -0.33284,0.19996 -0.37054,0.27231 -0.14192,0.27231 0.086,0 0.1563,0.029 0.1563,0.0644 0,0.0719 -0.86087,0.94488 -0.93175,0.94488 -0.0248,0 -0.0996,0.0497 -0.16627,0.11038 -0.0666,0.0608 -0.22672,0.16653 -0.35568,0.23513 -0.12895,0.0686 -0.23447,0.14667 -0.23447,0.17347 0,0.0268 0.12339,0.0487 0.27419,0.0487 0.1508,0 0.36188,0.0372 0.46906,0.0827 l 0.19487,0.0827 -0.1877,0.14 c -0.10323,0.077 -0.18769,0.16754 -0.18769,0.20119 0,0.0358 0.27823,0.0612 0.66837,0.0612 0.36761,0 0.8389,0.0322 1.0473,0.0717 0.72379,0.1369 2.34844,0.7419 2.34844,0.87454 0,0.0297 0.0492,0.0668 0.10942,0.0827 0.0622,0.0164 0.0284,0.0324 -0.0781,0.0371 -0.18864,0.009 -0.39693,0.10173 -0.34208,0.15339 0.0162,0.0153 0.16872,0.11622 0.33894,0.22437 0.27099,0.17218 1.03479,0.85007 1.03479,0.91842 0,0.0137 -0.0985,0.0579 -0.21883,0.0979 -0.24929,0.083 -0.27933,0.16137 -0.0857,0.2234 0.2143,0.0687 0.88395,0.80628 1.0653,1.17349 0.18924,0.38319 0.3021,0.71269 0.3021,0.882 0,0.0855 -0.0642,0.0451 -0.24801,-0.15611 -0.4159,-0.4552 -0.98863,-0.67193 -1.77567,-0.67193 -0.41795,0 -0.47731,0.0141 -0.47731,0.11354 0,0.0625 0.0352,0.15105 0.0781,0.19689 0.0645,0.0689 0.007,0.0759 -0.32825,0.0408 -0.82034,-0.0858 -1.78747,-0.22924 -1.98984,-0.29516 -0.25761,-0.0839 -0.31735,-0.0342 -0.16416,0.13658 0.17136,0.19102 0.0648,0.2289 -0.79018,0.28072 -0.81226,0.0492 -1.51711,-7.4e-4 -1.89224,-0.13433 -0.2903,-0.10333 -0.47819,-0.1116 -0.47819,-0.0211 0,0.0695 0.009,0.0813 0.34315,0.45913 0.32646,0.36889 0.68289,0.93892 0.67267,1.07578 -0.009,0.11991 0.0869,0.35516 0.17025,0.4179 0.0863,0.0649 0.60576,0.86076 0.71313,1.09255 0.0613,0.13253 0.0949,0.28491 0.0745,0.33863 -0.0221,0.0582 0.096,0.30627 0.29198,0.61349 0.18102,0.28371 0.36447,0.57132 0.40768,0.63912 0.0432,0.0678 0.095,0.16585 0.11509,0.21789 0.0201,0.0521 0.0606,0.15139 0.0901,0.22078 0.0294,0.0694 0.0484,0.24811 0.0423,0.39717 -0.007,0.14905 0.0201,0.29098 0.0586,0.3154 0.0959,0.0609 0.40047,0.61158 0.6832,1.23532 0.0712,0.15697 0.10737,0.37523 0.10099,0.60868 -0.007,0.24766 0.016,0.37398 0.0711,0.39534 0.0783,0.0303 0.66715,1.34311 0.66715,1.48733 0,0.039 0.0281,0.071 0.0625,0.071 0.0865,0 0.0789,0.46286 -0.009,0.55155 -0.0537,0.0542 -0.0303,0.16004 0.0938,0.42437 0.0909,0.19371 0.1653,0.36843 0.1653,0.38826 0,0.0198 0.0446,0.1397 0.099,0.26636 0.0545,0.12667 0.13886,0.32354 0.18758,0.43747 0.0487,0.11392 0.0886,0.25729 0.0886,0.31856 0,0.0612 0.0245,0.13835 0.0544,0.17132 0.10625,0.1171 0.1296,0.52765 0.0354,0.62267 -0.0966,0.0974 -0.12232,0.38726 -0.039,0.43921 0.0483,0.0301 0.12224,0.24345 0.48111,1.38737 0.17784,0.5669 0.20174,0.9947 0.0621,1.11161 -0.12982,0.10872 -0.12088,0.1865 0.10081,0.87662 0.25501,0.79381 0.34905,1.20282 0.40161,1.74679 0.0417,0.43097 0.0373,0.45183 -0.12053,0.57706 l -0.16373,0.12994 0.0912,0.36914 c 0.18717,0.75774 0.33682,1.45087 0.37758,1.74873 0.0231,0.16898 0.0629,0.28253 0.0883,0.25232 0.0255,-0.0302 0.11183,-0.26782 0.19193,-0.52802 0.0801,-0.26022 0.18445,-0.59716 0.23191,-0.74881 0.0859,-0.2746 0.0643,-0.51279 -0.0466,-0.51279 -0.15723,0 0.0822,-1.0546 0.40833,-1.79861 0.16626,-0.37928 0.20145,-0.59844 0.0961,-0.59844 -0.15581,0 -0.013,-0.63046 0.29994,-1.32468 0.28559,-0.63343 0.32992,-0.76149 0.28755,-0.83065 -0.11437,-0.18669 0.007,-0.6813 0.29213,-1.1879 0.25166,-0.44757 0.36793,-0.75635 0.36009,-0.9563 -0.01,-0.24486 0.0895,-0.55016 0.26295,-0.80995 0.27734,-0.41544 0.50204,-0.89751 0.46831,-1.00473 -0.0491,-0.1562 0.21561,-0.69807 0.57398,-1.17475 0.14024,-0.18654 0.22756,-0.39451 0.24183,-0.57601 0.0158,-0.20054 0.23662,-0.57389 0.62925,-1.06375 0.11251,-0.14037 0.2007,-0.31068 0.19598,-0.37848 -0.0106,-0.15163 0.23021,-0.535 0.57104,-0.90924 0.14092,-0.15474 0.25622,-0.33404 0.25622,-0.39846 0,-0.14045 0.23377,-0.47358 0.61751,-0.87998 0.15486,-0.164 0.26233,-0.31757 0.23884,-0.34128 -0.0235,-0.0237 -0.15168,-0.0102 -0.28485,0.0301 -0.13317,0.0402 -0.47018,0.0731 -0.74893,0.0731 -0.5223,0 -1.44822,-0.16753 -1.44822,-0.26205 0,-0.0294 0.0281,-0.0533 0.0625,-0.0533 0.0344,0 0.0625,-0.032 0.0625,-0.0711 0,-0.0701 -1.01731,-0.0401 -1.67254,0.0493 -0.25134,0.0343 -0.26573,0.0277 -0.26573,-0.12145 0,-0.13747 -0.0345,-0.16292 -0.26904,-0.1984 -0.51221,-0.0775 -1.20531,0.13577 -1.54061,0.47404 -0.23593,0.23802 -0.24072,0.16608 -0.0203,-0.30371 0.16814,-0.35829 0.52654,-0.7708 0.95536,-1.09964 l 0.21803,-0.16718 -0.17692,-0.0697 -0.17692,-0.0697 0.27071,-0.25127 c 0.14889,-0.13821 0.40435,-0.31343 0.56769,-0.38938 0.16335,-0.0759 0.297,-0.15907 0.297,-0.18468 0,-0.0257 -0.0774,-0.0741 -0.17195,-0.10778 -0.17076,-0.0608 -0.16958,-0.0623 0.17195,-0.21716 0.18913,-0.0857 0.49863,-0.1908 0.68777,-0.23339 0.18914,-0.0426 0.44563,-0.10335 0.56998,-0.13503 0.12435,-0.0317 0.55343,-0.0576 0.9535,-0.0576 0.71388,0 0.82132,-0.032 0.63362,-0.18924 -0.16402,-0.13733 -0.10257,-0.18924 0.22405,-0.18924 0.33068,0 0.38708,-0.0819 0.14887,-0.21627 -0.16513,-0.0932 -0.9669,-0.90947 -0.9669,-0.98447 0,-0.0335 0.0422,-0.0609 0.0938,-0.0609 0.16713,0 0.10081,-0.10138 -0.27236,-0.41636 -0.20138,-0.16998 -0.4108,-0.38002 -0.46537,-0.46675 -0.0546,-0.0867 -0.24127,-0.35641 -0.41489,-0.59927 -0.17361,-0.24286 -0.3159,-0.44795 -0.31619,-0.45575 -2.5e-4,-0.008 0.0839,0.003 0.18705,0.0237 0.13609,0.0275 0.18703,0.014 0.1856,-0.0489 -0.003,-0.13472 -0.48965,-0.39853 -0.90463,-0.49047 -0.57935,-0.12837 -0.59153,-0.14661 -0.15632,-0.2341 0.80068,-0.16096 2.09021,-0.0965 2.93867,0.14684 0.51942,0.149 0.80831,0.27364 1.46578,0.63242 0.27448,0.14979 1.00545,0.89032 1.25405,1.27045 0.25706,0.39307 0.40641,0.48629 0.40641,0.25368 0,-0.18856 0.18469,-0.80473 0.2542,-0.84808 0.0321,-0.02 0.0584,0.0505 0.0584,0.15654 0,0.10613 0.0298,0.19296 0.0662,0.19296 0.0555,0 0.51998,-0.33222 0.62158,-0.44459 0.1209,-0.13374 0.46848,-0.31955 0.80816,-0.43206 0.45257,-0.14989 0.89191,-0.18248 0.76747,-0.0569 -0.13979,0.14104 -0.0761,0.16557 0.42436,0.16337 0.43693,-0.002 0.54883,0.0226 0.8947,0.19612 0.61885,0.31047 1.12906,0.75731 1.55584,1.3626 0.31613,0.44836 0.42088,0.70865 0.71083,1.76624 0.10136,0.36971 0.23892,1.29082 0.19882,1.33127 -0.0632,0.0638 -0.21953,-0.0569 -0.31862,-0.24591 -0.0583,-0.11123 -0.25975,-0.44352 -0.44765,-0.73842 -0.1879,-0.2949 -0.39803,-0.65155 -0.46694,-0.79257 -0.16735,-0.34241 -0.49098,-0.4943 -1.36025,-0.63838 -0.22319,-0.037 -0.26898,0.0529 -0.11576,0.22746 0.12504,0.14242 0.35024,0.56264 0.35019,0.65346 -3e-5,0.0554 -0.17927,0.0773 -0.64088,0.0785 -0.66793,0.002 -0.98473,0.0523 -0.98473,0.15737 0,0.0341 0.084,0.0619 0.18668,0.0619 0.42401,0 1.53976,0.37932 1.95686,0.66526 0.12417,0.0852 0.25375,0.15478 0.28794,0.15478 0.0342,0 0.1906,0.12774 0.34757,0.28386 0.15697,0.15612 0.30634,0.28402 0.33193,0.2842 0.0256,1.9e-4 0.15907,0.16013 0.29663,0.35542 0.13755,0.19529 0.29511,0.40094 0.35014,0.45699 0.055,0.0561 0.19121,0.28642 0.30264,0.51193 0.61629,1.24726 0.76876,1.88096 0.774,3.21709 0.003,0.81488 -0.08,1.53636 -0.21994,1.90817 -0.0643,0.17078 -0.17518,0.23787 -0.17518,0.10599 0,-0.0371 -0.0844,-0.19127 -0.18758,-0.34254 -0.10316,-0.15128 -0.18757,-0.30195 -0.18757,-0.33481 0,-0.0329 -0.0462,-0.0984 -0.10266,-0.14572 -0.0993,-0.0832 -0.77269,-1.44849 -0.77269,-1.56673 0,-0.0321 -0.0269,-0.0753 -0.0599,-0.0958 -0.0802,-0.05 -0.25276,0.29657 -0.25276,0.50757 0,0.22772 -0.12798,0.11982 -0.28561,-0.24077 -0.0645,-0.14765 -0.1322,-0.28265 -0.15034,-0.29999 -0.095,-0.0909 -0.20131,-0.52889 -0.23343,-0.96197 -0.0199,-0.26888 -0.0547,-0.48887 -0.0773,-0.48887 -0.0801,0 -0.1912,0.42355 -0.19147,0.72989 l -2.5e-4,0.31092 -0.28109,-0.31275 c -0.15462,-0.17202 -0.28111,-0.33523 -0.28111,-0.36271 0,-0.0275 -0.0272,-0.05 -0.0605,-0.05 -0.0379,0 -0.0459,0.3078 -0.0215,0.82308 0.0742,1.5647 -0.20306,3.44518 -0.70218,4.76265 -0.11895,0.31397 -0.21627,0.58804 -0.21627,0.60905 0,0.021 -0.12481,0.24242 -0.27736,0.49204 l -0.27735,0.45385 -0.0327,-0.21131 c -0.19049,-1.22937 -0.23772,-2.80755 -0.10517,-3.51381 0.0414,-0.22045 0.0575,-0.41872 0.0358,-0.44061 -0.0712,-0.0718 -0.27876,0.26631 -0.39704,0.64663 l -0.11598,0.37293 -0.0958,-0.27831 c -0.20438,-0.5938 -0.39106,-2.06383 -0.34485,-2.71546 0.0259,-0.36546 0.017,-0.42303 -0.0558,-0.36201 -0.10275,0.086 -0.2435,0.3904 -0.3022,0.65354 -0.0317,0.14219 -0.0546,0.16538 -0.0934,0.0946 -0.0823,-0.15029 -0.24675,-0.88898 -0.26553,-1.19273 -0.0182,-0.29448 -0.13459,-0.41436 -0.191,-0.19672 -0.0184,0.0709 -0.0621,0.12874 -0.0972,0.12874 -0.0786,0 -0.26053,-0.35663 -0.26053,-0.51061 0,-0.062 -0.0281,-0.13029 -0.0625,-0.15174 -0.0344,-0.0215 -0.0625,-0.22182 -0.0625,-0.44528 0,-0.5819 -0.15933,-0.55021 -0.49459,0.0983 -0.0807,0.15612 -0.22787,0.38907 -0.32703,0.51767 -0.0992,0.12859 -0.2647,0.41777 -0.36785,0.64262 -0.10316,0.22485 -0.25179,0.48865 -0.33029,0.58624 -0.0785,0.0976 -0.1936,0.30516 -0.25577,0.46128 -0.0622,0.15612 -0.1383,0.33315 -0.16916,0.39339 -0.0309,0.0603 -0.0561,0.13997 -0.0561,0.17717 0,0.0372 -0.0826,0.17242 -0.18364,0.30049 -0.10101,0.12807 -0.20257,0.31801 -0.2257,0.42209 -0.11535,0.51909 -0.4237,1.23006 -0.53348,1.23006 -0.0244,0 -0.0577,0.10645 -0.074,0.23655 -0.0453,0.36209 -0.20813,0.89963 -0.37801,1.24752 -0.0842,0.17255 -0.18742,0.51242 -0.22927,0.75526 -0.0895,0.51954 -0.1727,0.81999 -0.29088,1.05057 -0.0472,0.0921 -0.0858,0.24492 -0.0858,0.33967 0,0.37314 -0.2101,1.42032 -0.31591,1.57453 -0.0238,0.0347 -0.077,0.47115 -0.11831,0.96989 -0.0413,0.49873 -0.10648,0.98129 -0.14492,1.07236 -0.0384,0.0911 -0.0942,0.67651 -0.12398,1.301 -0.074,1.55278 -0.0751,1.72017 -0.0173,2.58959 0.0626,0.94146 0.003,1.18488 -0.32416,1.32276 -0.5124,0.21599 -1.95677,0.0438 -2.68131,-0.31969 l -0.31829,-0.15968 -0.30695,0.15424 c -0.71751,0.36056 -2.41825,0.53174 -3.2468,0.32679 z"
       id="path627" />
    <rect
       style="fill:#222222;fill-opacity:1;stroke-width:0.264583"
       id="rect827"
       width="46.831249"
       height="8.0697918"
       x="-246.76176"
       y="131.35088"
       rx="2.6458333"
       ry="2.6458333" />
    <text
       transform="translate(-123.11577,-4.8410169)"
       id="text340-7"
       y="142.46338"
       x="-100.49781"
       style="font-style:normal;font-variant:normal;font-weight:bold;font-stretch:normal;font-size:8.11389px;line-height:1.25;font-family:Candara;-inkscape-font-specification:'Candara Bold';text-align:center;text-anchor:middle;white-space:pre;inline-size:43.4227;fill:#eeeeee;fill-opacity:1;stroke:none;stroke-width:0.264583"
       xml:space="preserve"><tspan
         x="-100.49781"
         y="142.46338"><tspan>SERENITY</tspan></tspan></text>
  </g>
</svg>
